<svg xmlns="http://www.w3.org/2000/svg" xmlns:xlink="http://www.w3.org/1999/xlink" width="500" zoomAndPan="magnify" viewBox="0 0 375 374.999991" height="500" preserveAspectRatio="xMidYMid meet" version="1.0"><defs><g/><clipPath id="14ef9c8c49"><path d="M 187 92.777344 L 281.308594 92.777344 L 281.308594 272.777344 L 187 272.777344 Z M 187 92.777344 " clip-rule="nonzero"/></clipPath><clipPath id="7010616c7d"><path d="M 93.808594 92.777344 L 188 92.777344 L 188 272.777344 L 93.808594 272.777344 Z M 93.808594 92.777344 " clip-rule="nonzero"/></clipPath><clipPath id="8c5b7a9b24"><rect x="0" width="163" y="0" height="64"/></clipPath><clipPath id="29481db5ae"><rect x="0" width="326" y="0" height="16"/></clipPath></defs><g clip-path="url(#14ef9c8c49)"><path fill="#3871c1" d="M 187.511719 92.785156 L 187.511719 105.082031 C 191.667969 105.824219 202.523438 107.917969 216.160156 111.878906 C 230.203125 115.953125 249.851562 122.800781 267.761719 133.085938 C 265.726562 142.90625 261.21875 161.046875 252.566406 181.125 C 245.125 198.402344 236.101562 213.722656 225.757812 226.664062 C 220.078125 233.769531 213.980469 240.167969 207.507812 245.820312 C 202.21875 250.445312 193.949219 246.582031 194.046875 239.554688 C 194.414062 213.980469 195.539062 183.925781 198.785156 180.289062 C 201.0625 177.738281 204.667969 178.027344 208.199219 179.3125 C 211.585938 180.542969 212.613281 184.824219 210.140625 187.449219 C 210.117188 187.472656 210.097656 187.496094 210.074219 187.519531 C 200.769531 197.402344 207.691406 209.40625 219.160156 208.019531 C 232.613281 206.402344 243.695312 192.523438 243.695312 173.40625 C 243.695312 154.28125 232.710938 138.789062 219.160156 138.789062 C 209.386719 138.789062 199.539062 145.550781 203.078125 158.785156 C 204.910156 165.636719 210.917969 168.796875 214.480469 172.109375 C 209.035156 171.386719 202.300781 171.085938 198.480469 173.121094 C 190.507812 177.367188 190.019531 230.042969 190.347656 258.53125 C 190.417969 264.398438 190.515625 269.238281 190.59375 272.421875 C 191.710938 271.8125 192.8125 271.1875 193.902344 270.550781 C 267.300781 227.605469 281.1875 127.0625 281.1875 127.0625 C 240.675781 100.917969 187.511719 92.785156 187.511719 92.785156 " fill-opacity="1" fill-rule="nonzero"/></g><g clip-path="url(#7010616c7d)"><path fill="#80cc28" d="M 136.25 175.871094 C 135.949219 179 135.972656 182.011719 136.28125 184.867188 C 135.34375 181.515625 134.828125 177.851562 134.828125 173.941406 C 134.828125 156.722656 144.71875 142.761719 156.921875 142.761719 C 160.5 142.761719 164.085938 143.769531 166.871094 145.761719 C 165.589844 145.371094 164.265625 145.109375 162.929688 144.980469 C 149.953125 143.734375 138.011719 157.566406 136.25 175.871094 Z M 93.835938 127.0625 C 93.835938 127.0625 107.71875 227.605469 181.121094 270.550781 C 181.523438 270.785156 181.933594 271.019531 182.34375 271.25 C 183.03125 271.644531 183.726562 272.039062 184.425781 272.421875 C 184.503906 269.238281 184.605469 264.398438 184.675781 258.53125 C 185.003906 230.042969 184.511719 177.367188 176.539062 173.121094 C 172.71875 171.085938 165.984375 171.386719 160.539062 172.109375 C 164.105469 168.796875 170.113281 165.636719 171.945312 158.785156 C 175.484375 145.550781 165.636719 138.785156 155.859375 138.785156 C 142.308594 138.785156 131.324219 154.28125 131.324219 173.40625 C 131.324219 192.523438 142.40625 206.402344 155.859375 208.019531 C 167.328125 209.40625 174.25 197.402344 164.945312 187.519531 C 164.921875 187.496094 164.902344 187.472656 164.878906 187.445312 C 162.40625 184.824219 163.433594 180.542969 166.820312 179.3125 C 170.351562 178.027344 173.957031 177.738281 176.234375 180.289062 C 179.484375 183.925781 180.609375 213.980469 180.972656 239.550781 C 181.074219 246.582031 172.800781 250.4375 167.503906 245.8125 C 160.949219 240.085938 154.78125 233.597656 149.039062 226.382812 C 138.667969 213.351562 129.636719 197.925781 122.199219 180.542969 C 113.671875 160.597656 109.25 142.78125 107.25 133.09375 C 125.160156 122.804688 144.816406 115.953125 158.859375 111.878906 C 172.492188 107.921875 183.34375 105.824219 187.511719 105.082031 L 187.511719 92.785156 C 187.511719 92.785156 134.34375 100.917969 93.835938 127.0625 " fill-opacity="1" fill-rule="nonzero"/></g><g transform="matrix(1, 0, 0, 1, 110, 264)"><g clip-path="url(#8c5b7a9b24)"><g fill="#004aad" fill-opacity="1"><g transform="translate(1.437132, 47.211233)"><g><path d="M 1.015625 0 L 1.015625 -0.453125 L 1.9375 -0.828125 C 2.550781 -1.046875 2.957031 -1.335938 3.15625 -1.703125 C 3.351562 -2.066406 3.453125 -2.554688 3.453125 -3.171875 L 3.453125 -27.1875 C 3.453125 -27.800781 3.359375 -28.289062 3.171875 -28.65625 C 2.992188 -29.03125 2.582031 -29.328125 1.9375 -29.546875 L 1.015625 -29.90625 L 1.015625 -30.375 L 12.84375 -30.375 L 12.84375 -29.90625 L 11.921875 -29.546875 C 11.304688 -29.328125 10.898438 -29.03125 10.703125 -28.65625 C 10.503906 -28.289062 10.40625 -27.800781 10.40625 -27.1875 L 10.40625 -3.171875 C 10.40625 -2.554688 10.503906 -2.070312 10.703125 -1.71875 C 10.898438 -1.375 11.304688 -1.078125 11.921875 -0.828125 L 12.84375 -0.453125 L 12.84375 0 Z M 1.015625 0 "/></g></g></g><g fill="#004aad" fill-opacity="1"><g transform="translate(15.28565, 47.211233)"><g><path d="M 1.609375 0 L 1.609375 -0.453125 L 3.125 -0.921875 C 3.675781 -1.078125 4.070312 -1.375 4.3125 -1.8125 C 4.5625 -2.257812 4.6875 -2.789062 4.6875 -3.40625 L 4.6875 -25.53125 C 4.351562 -26.269531 4.085938 -26.820312 3.890625 -27.1875 C 3.691406 -27.5625 3.46875 -27.878906 3.21875 -28.140625 C 2.976562 -28.398438 2.640625 -28.726562 2.203125 -29.125 L 1.421875 -29.90625 L 1.421875 -30.375 L 9.578125 -30.375 L 24.84375 -9.53125 L 24.84375 -26.875 C 24.84375 -27.488281 24.742188 -28.039062 24.546875 -28.53125 C 24.347656 -29.019531 23.941406 -29.34375 23.328125 -29.5 L 21.8125 -29.90625 L 21.8125 -30.375 L 28.390625 -30.375 L 28.390625 -29.90625 L 27.15625 -29.5 C 26.601562 -29.3125 26.265625 -28.988281 26.140625 -28.53125 C 26.015625 -28.070312 25.953125 -27.535156 25.953125 -26.921875 L 25.953125 0.140625 L 23.375 0.140625 L 5.796875 -24.015625 L 5.796875 -3.40625 C 5.796875 -2.789062 5.882812 -2.269531 6.0625 -1.84375 C 6.25 -1.414062 6.632812 -1.109375 7.21875 -0.921875 L 8.609375 -0.453125 L 8.609375 0 Z M 1.609375 0 "/></g></g></g><g fill="#004aad" fill-opacity="1"><g transform="translate(44.869012, 47.211233)"><g><path d="M 10.90625 0.828125 C 9.21875 0.828125 7.5 0.617188 5.75 0.203125 C 4 -0.210938 2.539062 -0.753906 1.375 -1.421875 L 1.609375 -7.6875 L 2.078125 -7.6875 L 3.5 -4.6875 C 3.925781 -3.832031 4.382812 -3.070312 4.875 -2.40625 C 5.363281 -1.75 6.039062 -1.238281 6.90625 -0.875 C 7.519531 -0.570312 8.109375 -0.363281 8.671875 -0.25 C 9.242188 -0.144531 9.878906 -0.09375 10.578125 -0.09375 C 12.453125 -0.09375 13.929688 -0.597656 15.015625 -1.609375 C 16.109375 -2.617188 16.65625 -3.921875 16.65625 -5.515625 C 16.65625 -7.023438 16.285156 -8.203125 15.546875 -9.046875 C 14.816406 -9.890625 13.640625 -10.707031 12.015625 -11.5 L 10.125 -12.328125 C 7.488281 -13.492188 5.425781 -14.835938 3.9375 -16.359375 C 2.445312 -17.878906 1.703125 -19.894531 1.703125 -22.40625 C 1.703125 -24.21875 2.171875 -25.78125 3.109375 -27.09375 C 4.046875 -28.414062 5.347656 -29.429688 7.015625 -30.140625 C 8.691406 -30.847656 10.648438 -31.203125 12.890625 -31.203125 C 14.515625 -31.203125 16.050781 -30.984375 17.5 -30.546875 C 18.957031 -30.117188 20.226562 -29.539062 21.3125 -28.8125 L 21.03125 -23.28125 L 20.5625 -23.28125 L 18.6875 -26.734375 C 18.164062 -27.804688 17.640625 -28.566406 17.109375 -29.015625 C 16.585938 -29.460938 15.992188 -29.773438 15.328125 -29.953125 C 14.921875 -30.078125 14.550781 -30.160156 14.21875 -30.203125 C 13.882812 -30.253906 13.457031 -30.28125 12.9375 -30.28125 C 11.363281 -30.28125 10.039062 -29.828125 8.96875 -28.921875 C 7.894531 -28.015625 7.359375 -26.796875 7.359375 -25.265625 C 7.359375 -23.703125 7.769531 -22.453125 8.59375 -21.515625 C 9.425781 -20.578125 10.640625 -19.738281 12.234375 -19 L 14.359375 -18.078125 C 17.304688 -16.796875 19.421875 -15.425781 20.703125 -13.96875 C 21.992188 -12.507812 22.640625 -10.628906 22.640625 -8.328125 C 22.640625 -5.628906 21.617188 -3.425781 19.578125 -1.71875 C 17.535156 -0.0195312 14.644531 0.828125 10.90625 0.828125 Z M 10.90625 0.828125 "/></g></g></g><g fill="#004aad" fill-opacity="1"><g transform="translate(68.655326, 47.211233)"><g><path d="M 1.015625 0 L 1.015625 -0.453125 L 1.9375 -0.78125 C 2.550781 -0.96875 2.957031 -1.242188 3.15625 -1.609375 C 3.351562 -1.972656 3.453125 -2.460938 3.453125 -3.078125 L 3.453125 -27.1875 C 3.453125 -27.800781 3.34375 -28.289062 3.125 -28.65625 C 2.914062 -29.03125 2.503906 -29.328125 1.890625 -29.546875 L 1.015625 -29.90625 L 1.015625 -30.375 L 12.1875 -30.375 C 16.757812 -30.375 20.066406 -29.535156 22.109375 -27.859375 C 24.148438 -26.191406 25.171875 -23.992188 25.171875 -21.265625 C 25.171875 -19.515625 24.75 -17.910156 23.90625 -16.453125 C 23.0625 -14.992188 21.671875 -13.832031 19.734375 -12.96875 C 17.804688 -12.113281 15.203125 -11.6875 11.921875 -11.6875 L 10.359375 -11.6875 L 10.359375 -3.21875 C 10.359375 -2.019531 10.953125 -1.238281 12.140625 -0.875 L 13.53125 -0.453125 L 13.53125 0 Z M 10.359375 -12.609375 L 12.109375 -12.609375 C 13.609375 -12.609375 14.832031 -12.851562 15.78125 -13.34375 C 16.726562 -13.832031 17.429688 -14.691406 17.890625 -15.921875 C 18.359375 -17.148438 18.59375 -18.851562 18.59375 -21.03125 C 18.59375 -23.238281 18.335938 -24.957031 17.828125 -26.1875 C 17.328125 -27.414062 16.582031 -28.265625 15.59375 -28.734375 C 14.613281 -29.210938 13.390625 -29.453125 11.921875 -29.453125 L 10.359375 -29.453125 Z M 10.359375 -12.609375 "/></g></g></g><g fill="#004aad" fill-opacity="1"><g transform="translate(94.189949, 47.211233)"><g><path d="M 1.015625 0 L 1.015625 -0.453125 L 1.9375 -0.828125 C 2.550781 -1.046875 2.957031 -1.335938 3.15625 -1.703125 C 3.351562 -2.066406 3.453125 -2.554688 3.453125 -3.171875 L 3.453125 -27.1875 C 3.453125 -27.800781 3.359375 -28.289062 3.171875 -28.65625 C 2.992188 -29.03125 2.582031 -29.328125 1.9375 -29.546875 L 1.015625 -29.90625 L 1.015625 -30.375 L 12.84375 -30.375 L 12.84375 -29.90625 L 11.921875 -29.546875 C 11.304688 -29.328125 10.898438 -29.03125 10.703125 -28.65625 C 10.503906 -28.289062 10.40625 -27.800781 10.40625 -27.1875 L 10.40625 -3.171875 C 10.40625 -2.554688 10.503906 -2.070312 10.703125 -1.71875 C 10.898438 -1.375 11.304688 -1.078125 11.921875 -0.828125 L 12.84375 -0.453125 L 12.84375 0 Z M 1.015625 0 "/></g></g></g><g fill="#004aad" fill-opacity="1"><g transform="translate(108.038467, 47.211233)"><g><path d="M 1.015625 0 L 1.015625 -0.453125 L 1.984375 -0.78125 C 2.597656 -1 2.992188 -1.28125 3.171875 -1.625 C 3.359375 -1.976562 3.453125 -2.476562 3.453125 -3.125 L 3.453125 -27.1875 C 3.453125 -27.800781 3.363281 -28.285156 3.1875 -28.640625 C 3.019531 -28.992188 2.648438 -29.28125 2.078125 -29.5 L 1.015625 -29.90625 L 1.015625 -30.375 L 14.171875 -30.375 C 17.796875 -30.375 20.570312 -29.691406 22.5 -28.328125 C 24.4375 -26.960938 25.40625 -25.066406 25.40625 -22.640625 C 25.40625 -21.285156 24.894531 -19.929688 23.875 -18.578125 C 22.863281 -17.234375 21.269531 -16.195312 19.09375 -15.46875 L 25.5 -2.765625 C 25.769531 -2.242188 26.082031 -1.820312 26.4375 -1.5 C 26.789062 -1.175781 27.257812 -0.890625 27.84375 -0.640625 L 28.4375 -0.421875 L 28.4375 0 L 20.203125 0 L 13.390625 -14.5 L 10.265625 -14.5 L 10.265625 -3.125 C 10.265625 -2.539062 10.351562 -2.066406 10.53125 -1.703125 C 10.71875 -1.335938 11.101562 -1.0625 11.6875 -0.875 L 12.796875 -0.453125 L 12.796875 0 Z M 10.265625 -15.421875 L 12.46875 -15.421875 C 14.675781 -15.421875 16.269531 -16.007812 17.25 -17.1875 C 18.238281 -18.363281 18.734375 -20.117188 18.734375 -22.453125 C 18.734375 -24.816406 18.269531 -26.570312 17.34375 -27.71875 C 16.425781 -28.875 14.878906 -29.453125 12.703125 -29.453125 L 10.265625 -29.453125 Z M 10.265625 -15.421875 "/></g></g></g><g fill="#004aad" fill-opacity="1"><g transform="translate(136.93173, 47.211233)"><g><path d="M 1.015625 0 L 1.015625 -0.453125 L 2.078125 -0.875 C 2.597656 -1.09375 2.957031 -1.375 3.15625 -1.71875 C 3.351562 -2.070312 3.453125 -2.554688 3.453125 -3.171875 L 3.453125 -27.1875 C 3.453125 -27.800781 3.363281 -28.285156 3.1875 -28.640625 C 3.019531 -28.992188 2.648438 -29.28125 2.078125 -29.5 L 1.015625 -29.90625 L 1.015625 -30.375 L 23.046875 -30.375 L 23.328125 -23.28125 L 22.875 -23.28125 L 20.890625 -27.609375 C 20.617188 -28.160156 20.328125 -28.601562 20.015625 -28.9375 C 19.710938 -29.28125 19.253906 -29.453125 18.640625 -29.453125 L 10.359375 -29.453125 L 10.359375 -16.15625 L 15.28125 -16.15625 C 15.894531 -16.15625 16.359375 -16.316406 16.671875 -16.640625 C 16.992188 -16.960938 17.28125 -17.398438 17.53125 -17.953125 L 18.453125 -19.78125 L 18.90625 -19.78125 L 18.90625 -11.5 L 18.453125 -11.5 L 17.53125 -13.4375 C 17.257812 -13.988281 16.96875 -14.425781 16.65625 -14.75 C 16.351562 -15.070312 15.894531 -15.234375 15.28125 -15.234375 L 10.359375 -15.234375 L 10.359375 -0.921875 L 19.65625 -0.921875 C 20.257812 -0.921875 20.726562 -1.082031 21.0625 -1.40625 C 21.40625 -1.726562 21.6875 -2.179688 21.90625 -2.765625 L 23.796875 -7.09375 L 24.25 -7.09375 L 23.96875 0 Z M 1.015625 0 "/></g></g></g></g></g><g transform="matrix(1, 0, 0, 1, 29, 317)"><g clip-path="url(#29481db5ae)"><g fill="#004aad" fill-opacity="1"><g transform="translate(0.620664, 11.784283)"><g><path d="M 2.453125 0 L 1 0 L 1 -7.65625 L 2.734375 -7.65625 L 5.796875 -2.71875 L 5.9375 -2.75 L 5.9375 -7.65625 L 7.390625 -7.65625 L 7.390625 0 L 5.84375 0 L 2.59375 -5.265625 L 2.453125 -5.25 Z M 2.453125 0 "/></g></g></g><g fill="#004aad" fill-opacity="1"><g transform="translate(9.012583, 11.784283)"><g><path d="M 7.34375 0 L 5.75 0 L 5.171875 -1.765625 L 2.25 -1.765625 L 1.671875 0 L 0.109375 0 L 2.765625 -7.65625 L 4.703125 -7.65625 Z M 3.640625 -6.0625 L 2.65625 -3.03125 L 4.75 -3.03125 L 3.765625 -6.0625 Z M 3.640625 -6.0625 "/></g></g></g><g fill="#004aad" fill-opacity="1"><g transform="translate(16.01193, 11.784283)"><g><path d="M 4.546875 0 L 2.71875 0 L 0.140625 -7.65625 L 1.75 -7.65625 L 3.59375 -1.953125 L 3.734375 -1.953125 L 5.5625 -7.65625 L 7.125 -7.65625 Z M 4.546875 0 "/></g></g></g><g fill="#004aad" fill-opacity="1"><g transform="translate(23.278293, 11.784283)"><g><path d="M 2.5 0 L 1 0 L 1 -7.65625 L 2.5 -7.65625 Z M 2.5 0 "/></g></g></g><g fill="#004aad" fill-opacity="1"><g transform="translate(26.785831, 11.784283)"><g><path d="M 3.71875 0.109375 C 3.082031 0.109375 2.53125 -0.0351562 2.0625 -0.328125 C 1.59375 -0.617188 1.234375 -1.054688 0.984375 -1.640625 C 0.734375 -2.234375 0.609375 -2.960938 0.609375 -3.828125 C 0.609375 -4.703125 0.757812 -5.429688 1.0625 -6.015625 C 1.363281 -6.597656 1.78125 -7.035156 2.3125 -7.328125 C 2.851562 -7.617188 3.484375 -7.765625 4.203125 -7.765625 C 4.929688 -7.765625 5.550781 -7.625 6.0625 -7.34375 C 6.582031 -7.070312 6.945312 -6.671875 7.15625 -6.140625 L 6.0625 -5.46875 L 5.921875 -5.46875 C 5.765625 -5.8125 5.546875 -6.0625 5.265625 -6.21875 C 4.984375 -6.375 4.628906 -6.453125 4.203125 -6.453125 C 3.535156 -6.453125 3.023438 -6.242188 2.671875 -5.828125 C 2.328125 -5.410156 2.15625 -4.742188 2.15625 -3.828125 C 2.15625 -2.898438 2.316406 -2.226562 2.640625 -1.8125 C 2.972656 -1.394531 3.457031 -1.1875 4.09375 -1.1875 C 4.644531 -1.1875 5.050781 -1.304688 5.3125 -1.546875 C 5.570312 -1.796875 5.703125 -2.164062 5.703125 -2.65625 L 5.703125 -3 L 3.90625 -3 L 3.90625 -4.21875 L 7.21875 -4.21875 L 7.21875 0 L 5.765625 0 L 5.765625 -1.03125 L 5.65625 -1.046875 C 5.5 -0.671875 5.257812 -0.382812 4.9375 -0.1875 C 4.625 0.0078125 4.21875 0.109375 3.71875 0.109375 Z M 3.71875 0.109375 "/></g></g></g><g fill="#004aad" fill-opacity="1"><g transform="translate(34.76941, 11.784283)"><g><path d="M 7.34375 0 L 5.75 0 L 5.171875 -1.765625 L 2.25 -1.765625 L 1.671875 0 L 0.109375 0 L 2.765625 -7.65625 L 4.703125 -7.65625 Z M 3.640625 -6.0625 L 2.65625 -3.03125 L 4.75 -3.03125 L 3.765625 -6.0625 Z M 3.640625 -6.0625 "/></g></g></g><g fill="#004aad" fill-opacity="1"><g transform="translate(41.548864, 11.784283)"><g><path d="M 6.140625 -7.65625 L 6.140625 -6.375 L 3.921875 -6.375 L 3.921875 0 L 2.421875 0 L 2.421875 -6.375 L 0.203125 -6.375 L 0.203125 -7.65625 Z M 6.140625 -7.65625 "/></g></g></g><g fill="#004aad" fill-opacity="1"><g transform="translate(47.893844, 11.784283)"><g><path d="M 2.5 0 L 1 0 L 1 -7.65625 L 2.5 -7.65625 Z M 2.5 0 "/></g></g></g><g fill="#004aad" fill-opacity="1"><g transform="translate(51.401382, 11.784283)"><g><path d="M 2.453125 0 L 1 0 L 1 -7.65625 L 2.734375 -7.65625 L 5.796875 -2.71875 L 5.9375 -2.75 L 5.9375 -7.65625 L 7.390625 -7.65625 L 7.390625 0 L 5.84375 0 L 2.59375 -5.265625 L 2.453125 -5.25 Z M 2.453125 0 "/></g></g></g><g fill="#004aad" fill-opacity="1"><g transform="translate(59.793302, 11.784283)"><g><path d="M 3.71875 0.109375 C 3.082031 0.109375 2.53125 -0.0351562 2.0625 -0.328125 C 1.59375 -0.617188 1.234375 -1.054688 0.984375 -1.640625 C 0.734375 -2.234375 0.609375 -2.960938 0.609375 -3.828125 C 0.609375 -4.703125 0.757812 -5.429688 1.0625 -6.015625 C 1.363281 -6.597656 1.78125 -7.035156 2.3125 -7.328125 C 2.851562 -7.617188 3.484375 -7.765625 4.203125 -7.765625 C 4.929688 -7.765625 5.550781 -7.625 6.0625 -7.34375 C 6.582031 -7.070312 6.945312 -6.671875 7.15625 -6.140625 L 6.0625 -5.46875 L 5.921875 -5.46875 C 5.765625 -5.8125 5.546875 -6.0625 5.265625 -6.21875 C 4.984375 -6.375 4.628906 -6.453125 4.203125 -6.453125 C 3.535156 -6.453125 3.023438 -6.242188 2.671875 -5.828125 C 2.328125 -5.410156 2.15625 -4.742188 2.15625 -3.828125 C 2.15625 -2.898438 2.316406 -2.226562 2.640625 -1.8125 C 2.972656 -1.394531 3.457031 -1.1875 4.09375 -1.1875 C 4.644531 -1.1875 5.050781 -1.304688 5.3125 -1.546875 C 5.570312 -1.796875 5.703125 -2.164062 5.703125 -2.65625 L 5.703125 -3 L 3.90625 -3 L 3.90625 -4.21875 L 7.21875 -4.21875 L 7.21875 0 L 5.765625 0 L 5.765625 -1.03125 L 5.65625 -1.046875 C 5.5 -0.671875 5.257812 -0.382812 4.9375 -0.1875 C 4.625 0.0078125 4.21875 0.109375 3.71875 0.109375 Z M 3.71875 0.109375 "/></g></g></g><g fill="#004aad" fill-opacity="1"><g transform="translate(67.77688, 11.784283)"><g/></g></g><g fill="#004aad" fill-opacity="1"><g transform="translate(70.305452, 11.784283)"><g><path d="M 6.140625 -7.65625 L 6.140625 -6.375 L 3.921875 -6.375 L 3.921875 0 L 2.421875 0 L 2.421875 -6.375 L 0.203125 -6.375 L 0.203125 -7.65625 Z M 6.140625 -7.65625 "/></g></g></g><g fill="#004aad" fill-opacity="1"><g transform="translate(76.650432, 11.784283)"><g><path d="M 5.9375 -4.765625 L 5.9375 -7.65625 L 7.4375 -7.65625 L 7.4375 0 L 5.9375 0 L 5.9375 -3.484375 L 2.5 -3.484375 L 2.5 0 L 1 0 L 1 -7.65625 L 2.5 -7.65625 L 2.5 -4.765625 Z M 5.9375 -4.765625 "/></g></g></g><g fill="#004aad" fill-opacity="1"><g transform="translate(85.094703, 11.784283)"><g><path d="M 2.5 -3.359375 L 2.5 -1.265625 L 6.15625 -1.265625 L 6.15625 0 L 1 0 L 1 -7.65625 L 6.078125 -7.65625 L 6.078125 -6.390625 L 2.5 -6.390625 L 2.5 -4.59375 L 5.625 -4.59375 L 5.625 -3.359375 Z M 2.5 -3.359375 "/></g></g></g><g fill="#004aad" fill-opacity="1"><g transform="translate(91.675266, 11.784283)"><g/></g></g><g fill="#004aad" fill-opacity="1"><g transform="translate(94.203838, 11.784283)"><g><path d="M 2.375 0 L 1 0 L 1 -7.65625 L 2.96875 -7.65625 L 4.90625 -2.03125 L 5.015625 -2.03125 L 6.9375 -7.65625 L 8.875 -7.65625 L 8.875 0 L 7.4375 0 L 7.4375 -5.0625 L 7.3125 -5.078125 L 5.546875 0 L 4.28125 0 L 2.515625 -5.078125 L 2.375 -5.0625 Z M 2.375 0 "/></g></g></g><g fill="#004aad" fill-opacity="1"><g transform="translate(104.082534, 11.784283)"><g><path d="M 7.34375 0 L 5.75 0 L 5.171875 -1.765625 L 2.25 -1.765625 L 1.671875 0 L 0.109375 0 L 2.765625 -7.65625 L 4.703125 -7.65625 Z M 3.640625 -6.0625 L 2.65625 -3.03125 L 4.75 -3.03125 L 3.765625 -6.0625 Z M 3.640625 -6.0625 "/></g></g></g><g fill="#004aad" fill-opacity="1"><g transform="translate(111.600195, 11.784283)"><g><path d="M 5.9375 0 L 0.3125 0 L 0.3125 -1.328125 L 4.15625 -6.28125 L 4.109375 -6.390625 L 0.46875 -6.390625 L 0.46875 -7.65625 L 5.890625 -7.65625 L 5.890625 -6.3125 L 2.0625 -1.375 L 2.09375 -1.265625 L 5.9375 -1.265625 Z M 5.9375 0 "/></g></g></g><g fill="#004aad" fill-opacity="1"><g transform="translate(117.850937, 11.784283)"><g><path d="M 2.5 -3.359375 L 2.5 -1.265625 L 6.15625 -1.265625 L 6.15625 0 L 1 0 L 1 -7.65625 L 6.078125 -7.65625 L 6.078125 -6.390625 L 2.5 -6.390625 L 2.5 -4.59375 L 5.625 -4.59375 L 5.625 -3.359375 Z M 2.5 -3.359375 "/></g></g></g><g fill="#004aad" fill-opacity="1"><g transform="translate(124.431506, 11.784283)"><g/></g></g><g fill="#004aad" fill-opacity="1"><g transform="translate(126.960078, 11.784283)"><g><path d="M 4.171875 0.109375 C 3.472656 0.109375 2.851562 -0.03125 2.3125 -0.3125 C 1.78125 -0.601562 1.363281 -1.039062 1.0625 -1.625 C 0.757812 -2.21875 0.609375 -2.953125 0.609375 -3.828125 C 0.609375 -4.703125 0.757812 -5.429688 1.0625 -6.015625 C 1.363281 -6.609375 1.78125 -7.046875 2.3125 -7.328125 C 2.851562 -7.617188 3.472656 -7.765625 4.171875 -7.765625 C 4.867188 -7.765625 5.484375 -7.617188 6.015625 -7.328125 C 6.554688 -7.046875 6.976562 -6.609375 7.28125 -6.015625 C 7.582031 -5.429688 7.734375 -4.703125 7.734375 -3.828125 C 7.734375 -2.953125 7.582031 -2.21875 7.28125 -1.625 C 6.976562 -1.039062 6.554688 -0.601562 6.015625 -0.3125 C 5.484375 -0.03125 4.867188 0.109375 4.171875 0.109375 Z M 4.171875 -1.203125 C 4.816406 -1.203125 5.3125 -1.410156 5.65625 -1.828125 C 6 -2.242188 6.171875 -2.910156 6.171875 -3.828125 C 6.171875 -4.742188 6 -5.410156 5.65625 -5.828125 C 5.3125 -6.242188 4.816406 -6.453125 4.171875 -6.453125 C 3.515625 -6.453125 3.015625 -6.242188 2.671875 -5.828125 C 2.328125 -5.410156 2.15625 -4.742188 2.15625 -3.828125 C 2.15625 -2.910156 2.328125 -2.242188 2.671875 -1.828125 C 3.015625 -1.410156 3.515625 -1.203125 4.171875 -1.203125 Z M 4.171875 -1.203125 "/></g></g></g><g fill="#004aad" fill-opacity="1"><g transform="translate(135.29964, 11.784283)"><g><path d="M 5.84375 -7.65625 L 5.84375 -6.390625 L 2.5 -6.390625 L 2.5 -4.359375 L 5.53125 -4.359375 L 5.53125 -3.109375 L 2.5 -3.109375 L 2.5 0 L 1 0 L 1 -7.65625 Z M 5.84375 -7.65625 "/></g></g></g><g fill="#004aad" fill-opacity="1"><g transform="translate(141.48756, 11.784283)"><g/></g></g><g fill="#004aad" fill-opacity="1"><g transform="translate(144.016132, 11.784283)"><g><path d="M 1 0 L 1 -7.65625 L 2.5 -7.65625 L 2.5 -4.53125 L 2.671875 -4.53125 L 5.234375 -7.65625 L 6.78125 -7.65625 L 6.78125 -7.515625 L 3.96875 -4.046875 L 7.078125 -0.125 L 7.078125 0 L 5.359375 0 L 2.671875 -3.296875 L 2.5 -3.296875 L 2.5 0 Z M 1 0 "/></g></g></g><g fill="#004aad" fill-opacity="1"><g transform="translate(151.088809, 11.784283)"><g><path d="M 2.5 0 L 1 0 L 1 -7.65625 L 2.5 -7.65625 Z M 2.5 0 "/></g></g></g><g fill="#004aad" fill-opacity="1"><g transform="translate(154.596342, 11.784283)"><g><path d="M 3.75 -7.65625 C 4.988281 -7.65625 5.9375 -7.332031 6.59375 -6.6875 C 7.25 -6.039062 7.578125 -5.085938 7.578125 -3.828125 C 7.578125 -2.566406 7.25 -1.613281 6.59375 -0.96875 C 5.9375 -0.320312 4.988281 0 3.75 0 L 1 0 L 1 -7.65625 Z M 3.65625 -1.265625 C 4.445312 -1.265625 5.035156 -1.46875 5.421875 -1.875 C 5.816406 -2.28125 6.015625 -2.929688 6.015625 -3.828125 C 6.015625 -4.722656 5.816406 -5.367188 5.421875 -5.765625 C 5.035156 -6.171875 4.445312 -6.375 3.65625 -6.375 L 2.5 -6.375 L 2.5 -1.265625 Z M 3.65625 -1.265625 "/></g></g></g><g fill="#004aad" fill-opacity="1"><g transform="translate(162.778856, 11.784283)"><g><path d="M 2.453125 0 L 1 0 L 1 -7.65625 L 2.734375 -7.65625 L 5.796875 -2.71875 L 5.9375 -2.75 L 5.9375 -7.65625 L 7.390625 -7.65625 L 7.390625 0 L 5.84375 0 L 2.59375 -5.265625 L 2.453125 -5.25 Z M 2.453125 0 "/></g></g></g><g fill="#004aad" fill-opacity="1"><g transform="translate(171.170775, 11.784283)"><g><path d="M 2.5 -3.359375 L 2.5 -1.265625 L 6.15625 -1.265625 L 6.15625 0 L 1 0 L 1 -7.65625 L 6.078125 -7.65625 L 6.078125 -6.390625 L 2.5 -6.390625 L 2.5 -4.59375 L 5.625 -4.59375 L 5.625 -3.359375 Z M 2.5 -3.359375 "/></g></g></g><g fill="#004aad" fill-opacity="1"><g transform="translate(177.751333, 11.784283)"><g><path d="M 4.1875 0 L 2.6875 0 L 2.6875 -3 L 0.03125 -7.65625 L 1.65625 -7.65625 L 3.40625 -4.640625 L 3.53125 -4.640625 L 5.25 -7.65625 L 6.828125 -7.65625 L 4.1875 -3 Z M 4.1875 0 "/></g></g></g><g fill="#004aad" fill-opacity="1"><g transform="translate(184.62507, 11.784283)"><g/></g></g><g fill="#004aad" fill-opacity="1"><g transform="translate(187.153641, 11.784283)"><g><path d="M 6.140625 -7.65625 L 6.140625 -6.375 L 3.921875 -6.375 L 3.921875 0 L 2.421875 0 L 2.421875 -6.375 L 0.203125 -6.375 L 0.203125 -7.65625 Z M 6.140625 -7.65625 "/></g></g></g><g fill="#004aad" fill-opacity="1"><g transform="translate(193.49861, 11.784283)"><g><path d="M 1 0 L 1 -7.65625 L 4.0625 -7.65625 C 4.851562 -7.65625 5.453125 -7.472656 5.859375 -7.109375 C 6.265625 -6.742188 6.46875 -6.238281 6.46875 -5.59375 C 6.46875 -5.132812 6.347656 -4.753906 6.109375 -4.453125 C 5.867188 -4.160156 5.519531 -3.9375 5.0625 -3.78125 L 5.0625 -3.65625 C 5.300781 -3.550781 5.492188 -3.394531 5.640625 -3.1875 C 5.785156 -2.988281 5.925781 -2.6875 6.0625 -2.28125 L 6.828125 0 L 5.265625 0 L 4.515625 -2.28125 C 4.441406 -2.507812 4.359375 -2.6875 4.265625 -2.8125 C 4.171875 -2.945312 4.046875 -3.039062 3.890625 -3.09375 C 3.742188 -3.15625 3.550781 -3.1875 3.3125 -3.1875 L 2.5 -3.1875 L 2.5 0 Z M 3.890625 -4.390625 C 4.617188 -4.390625 4.984375 -4.726562 4.984375 -5.40625 C 4.984375 -6.101562 4.617188 -6.453125 3.890625 -6.453125 L 2.5 -6.453125 L 2.5 -4.390625 Z M 3.890625 -4.390625 "/></g></g></g><g fill="#004aad" fill-opacity="1"><g transform="translate(200.655049, 11.784283)"><g><path d="M 7.34375 0 L 5.75 0 L 5.171875 -1.765625 L 2.25 -1.765625 L 1.671875 0 L 0.109375 0 L 2.765625 -7.65625 L 4.703125 -7.65625 Z M 3.640625 -6.0625 L 2.65625 -3.03125 L 4.75 -3.03125 L 3.765625 -6.0625 Z M 3.640625 -6.0625 "/></g></g></g><g fill="#004aad" fill-opacity="1"><g transform="translate(208.115121, 11.784283)"><g><path d="M 2.453125 0 L 1 0 L 1 -7.65625 L 2.734375 -7.65625 L 5.796875 -2.71875 L 5.9375 -2.75 L 5.9375 -7.65625 L 7.390625 -7.65625 L 7.390625 0 L 5.84375 0 L 2.59375 -5.265625 L 2.453125 -5.25 Z M 2.453125 0 "/></g></g></g><g fill="#004aad" fill-opacity="1"><g transform="translate(216.50704, 11.784283)"><g><path d="M 3.390625 0.109375 C 2.859375 0.109375 2.382812 0.046875 1.96875 -0.078125 C 1.5625 -0.210938 1.21875 -0.382812 0.9375 -0.59375 C 0.664062 -0.8125 0.457031 -1.046875 0.3125 -1.296875 L 1.140625 -2.3125 L 1.265625 -2.3125 C 1.503906 -1.976562 1.800781 -1.707031 2.15625 -1.5 C 2.507812 -1.300781 2.921875 -1.203125 3.390625 -1.203125 C 3.796875 -1.203125 4.097656 -1.285156 4.296875 -1.453125 C 4.503906 -1.628906 4.609375 -1.863281 4.609375 -2.15625 C 4.609375 -2.34375 4.578125 -2.492188 4.515625 -2.609375 C 4.453125 -2.734375 4.34375 -2.835938 4.1875 -2.921875 C 4.03125 -3.015625 3.820312 -3.09375 3.5625 -3.15625 L 2.578125 -3.375 C 1.890625 -3.53125 1.378906 -3.789062 1.046875 -4.15625 C 0.710938 -4.519531 0.546875 -4.992188 0.546875 -5.578125 C 0.546875 -6.015625 0.648438 -6.394531 0.859375 -6.71875 C 1.078125 -7.050781 1.390625 -7.304688 1.796875 -7.484375 C 2.210938 -7.671875 2.710938 -7.765625 3.296875 -7.765625 C 3.878906 -7.765625 4.378906 -7.6875 4.796875 -7.53125 C 5.222656 -7.375 5.582031 -7.132812 5.875 -6.8125 L 5.125 -5.78125 L 5 -5.78125 C 4.78125 -6.007812 4.53125 -6.179688 4.25 -6.296875 C 3.96875 -6.410156 3.648438 -6.46875 3.296875 -6.46875 C 2.878906 -6.46875 2.5625 -6.394531 2.34375 -6.25 C 2.125 -6.101562 2.015625 -5.898438 2.015625 -5.640625 C 2.015625 -5.398438 2.085938 -5.207031 2.234375 -5.0625 C 2.390625 -4.925781 2.65625 -4.816406 3.03125 -4.734375 L 4.046875 -4.515625 C 4.785156 -4.359375 5.320312 -4.09375 5.65625 -3.71875 C 5.988281 -3.34375 6.15625 -2.851562 6.15625 -2.25 C 6.15625 -1.769531 6.050781 -1.351562 5.84375 -1 C 5.644531 -0.644531 5.335938 -0.367188 4.921875 -0.171875 C 4.503906 0.015625 3.992188 0.109375 3.390625 0.109375 Z M 3.390625 0.109375 "/></g></g></g><g fill="#004aad" fill-opacity="1"><g transform="translate(223.082366, 11.784283)"><g><path d="M 3.953125 -7.65625 C 4.492188 -7.65625 4.957031 -7.550781 5.34375 -7.34375 C 5.738281 -7.144531 6.035156 -6.863281 6.234375 -6.5 C 6.429688 -6.144531 6.53125 -5.726562 6.53125 -5.25 C 6.53125 -4.769531 6.429688 -4.347656 6.234375 -3.984375 C 6.035156 -3.628906 5.738281 -3.351562 5.34375 -3.15625 C 4.957031 -2.957031 4.492188 -2.859375 3.953125 -2.859375 L 2.5 -2.859375 L 2.5 0 L 1 0 L 1 -7.65625 Z M 3.75 -4.046875 C 4.59375 -4.046875 5.015625 -4.445312 5.015625 -5.25 C 5.015625 -6.050781 4.59375 -6.453125 3.75 -6.453125 L 2.5 -6.453125 L 2.5 -4.046875 Z M 3.75 -4.046875 "/></g></g></g><g fill="#004aad" fill-opacity="1"><g transform="translate(230.076502, 11.784283)"><g><path d="M 2.5 -7.65625 L 2.5 -1.265625 L 5.953125 -1.265625 L 5.953125 0 L 1 0 L 1 -7.65625 Z M 2.5 -7.65625 "/></g></g></g><g fill="#004aad" fill-opacity="1"><g transform="translate(236.332487, 11.784283)"><g><path d="M 7.34375 0 L 5.75 0 L 5.171875 -1.765625 L 2.25 -1.765625 L 1.671875 0 L 0.109375 0 L 2.765625 -7.65625 L 4.703125 -7.65625 Z M 3.640625 -6.0625 L 2.65625 -3.03125 L 4.75 -3.03125 L 3.765625 -6.0625 Z M 3.640625 -6.0625 "/></g></g></g><g fill="#004aad" fill-opacity="1"><g transform="translate(243.792559, 11.784283)"><g><path d="M 2.453125 0 L 1 0 L 1 -7.65625 L 2.734375 -7.65625 L 5.796875 -2.71875 L 5.9375 -2.75 L 5.9375 -7.65625 L 7.390625 -7.65625 L 7.390625 0 L 5.84375 0 L 2.59375 -5.265625 L 2.453125 -5.25 Z M 2.453125 0 "/></g></g></g><g fill="#004aad" fill-opacity="1"><g transform="translate(252.184478, 11.784283)"><g><path d="M 6.140625 -7.65625 L 6.140625 -6.375 L 3.921875 -6.375 L 3.921875 0 L 2.421875 0 L 2.421875 -6.375 L 0.203125 -6.375 L 0.203125 -7.65625 Z M 6.140625 -7.65625 "/></g></g></g><g fill="#004aad" fill-opacity="1"><g transform="translate(258.618452, 11.784283)"><g><path d="M 3.390625 0.109375 C 2.859375 0.109375 2.382812 0.046875 1.96875 -0.078125 C 1.5625 -0.210938 1.21875 -0.382812 0.9375 -0.59375 C 0.664062 -0.8125 0.457031 -1.046875 0.3125 -1.296875 L 1.140625 -2.3125 L 1.265625 -2.3125 C 1.503906 -1.976562 1.800781 -1.707031 2.15625 -1.5 C 2.507812 -1.300781 2.921875 -1.203125 3.390625 -1.203125 C 3.796875 -1.203125 4.097656 -1.285156 4.296875 -1.453125 C 4.503906 -1.628906 4.609375 -1.863281 4.609375 -2.15625 C 4.609375 -2.34375 4.578125 -2.492188 4.515625 -2.609375 C 4.453125 -2.734375 4.34375 -2.835938 4.1875 -2.921875 C 4.03125 -3.015625 3.820312 -3.09375 3.5625 -3.15625 L 2.578125 -3.375 C 1.890625 -3.53125 1.378906 -3.789062 1.046875 -4.15625 C 0.710938 -4.519531 0.546875 -4.992188 0.546875 -5.578125 C 0.546875 -6.015625 0.648438 -6.394531 0.859375 -6.71875 C 1.078125 -7.050781 1.390625 -7.304688 1.796875 -7.484375 C 2.210938 -7.671875 2.710938 -7.765625 3.296875 -7.765625 C 3.878906 -7.765625 4.378906 -7.6875 4.796875 -7.53125 C 5.222656 -7.375 5.582031 -7.132812 5.875 -6.8125 L 5.125 -5.78125 L 5 -5.78125 C 4.78125 -6.007812 4.53125 -6.179688 4.25 -6.296875 C 3.96875 -6.410156 3.648438 -6.46875 3.296875 -6.46875 C 2.878906 -6.46875 2.5625 -6.394531 2.34375 -6.25 C 2.125 -6.101562 2.015625 -5.898438 2.015625 -5.640625 C 2.015625 -5.398438 2.085938 -5.207031 2.234375 -5.0625 C 2.390625 -4.925781 2.65625 -4.816406 3.03125 -4.734375 L 4.046875 -4.515625 C 4.785156 -4.359375 5.320312 -4.09375 5.65625 -3.71875 C 5.988281 -3.34375 6.15625 -2.851562 6.15625 -2.25 C 6.15625 -1.769531 6.050781 -1.351562 5.84375 -1 C 5.644531 -0.644531 5.335938 -0.367188 4.921875 -0.171875 C 4.503906 0.015625 3.992188 0.109375 3.390625 0.109375 Z M 3.390625 0.109375 "/></g></g></g><g fill="#004aad" fill-opacity="1"><g transform="translate(265.193778, 11.784283)"><g/></g></g><g fill="#004aad" fill-opacity="1"><g transform="translate(267.722349, 11.784283)"><g><path d="M 6.140625 -7.65625 L 6.140625 -6.375 L 3.921875 -6.375 L 3.921875 0 L 2.421875 0 L 2.421875 -6.375 L 0.203125 -6.375 L 0.203125 -7.65625 Z M 6.140625 -7.65625 "/></g></g></g><g fill="#004aad" fill-opacity="1"><g transform="translate(273.884086, 11.784283)"><g><path d="M 4.171875 0.109375 C 3.472656 0.109375 2.851562 -0.03125 2.3125 -0.3125 C 1.78125 -0.601562 1.363281 -1.039062 1.0625 -1.625 C 0.757812 -2.21875 0.609375 -2.953125 0.609375 -3.828125 C 0.609375 -4.703125 0.757812 -5.429688 1.0625 -6.015625 C 1.363281 -6.609375 1.78125 -7.046875 2.3125 -7.328125 C 2.851562 -7.617188 3.472656 -7.765625 4.171875 -7.765625 C 4.867188 -7.765625 5.484375 -7.617188 6.015625 -7.328125 C 6.554688 -7.046875 6.976562 -6.609375 7.28125 -6.015625 C 7.582031 -5.429688 7.734375 -4.703125 7.734375 -3.828125 C 7.734375 -2.953125 7.582031 -2.21875 7.28125 -1.625 C 6.976562 -1.039062 6.554688 -0.601562 6.015625 -0.3125 C 5.484375 -0.03125 4.867188 0.109375 4.171875 0.109375 Z M 4.171875 -1.203125 C 4.816406 -1.203125 5.3125 -1.410156 5.65625 -1.828125 C 6 -2.242188 6.171875 -2.910156 6.171875 -3.828125 C 6.171875 -4.742188 6 -5.410156 5.65625 -5.828125 C 5.3125 -6.242188 4.816406 -6.453125 4.171875 -6.453125 C 3.515625 -6.453125 3.015625 -6.242188 2.671875 -5.828125 C 2.328125 -5.410156 2.15625 -4.742188 2.15625 -3.828125 C 2.15625 -2.910156 2.328125 -2.242188 2.671875 -1.828125 C 3.015625 -1.410156 3.515625 -1.203125 4.171875 -1.203125 Z M 4.171875 -1.203125 "/></g></g></g><g fill="#004aad" fill-opacity="1"><g transform="translate(282.22366, 11.784283)"><g><path d="M 3.71875 0.109375 C 3.082031 0.109375 2.53125 -0.0351562 2.0625 -0.328125 C 1.59375 -0.617188 1.234375 -1.054688 0.984375 -1.640625 C 0.734375 -2.234375 0.609375 -2.960938 0.609375 -3.828125 C 0.609375 -4.703125 0.757812 -5.429688 1.0625 -6.015625 C 1.363281 -6.597656 1.78125 -7.035156 2.3125 -7.328125 C 2.851562 -7.617188 3.484375 -7.765625 4.203125 -7.765625 C 4.929688 -7.765625 5.550781 -7.625 6.0625 -7.34375 C 6.582031 -7.070312 6.945312 -6.671875 7.15625 -6.140625 L 6.0625 -5.46875 L 5.921875 -5.46875 C 5.765625 -5.8125 5.546875 -6.0625 5.265625 -6.21875 C 4.984375 -6.375 4.628906 -6.453125 4.203125 -6.453125 C 3.535156 -6.453125 3.023438 -6.242188 2.671875 -5.828125 C 2.328125 -5.410156 2.15625 -4.742188 2.15625 -3.828125 C 2.15625 -2.898438 2.316406 -2.226562 2.640625 -1.8125 C 2.972656 -1.394531 3.457031 -1.1875 4.09375 -1.1875 C 4.644531 -1.1875 5.050781 -1.304688 5.3125 -1.546875 C 5.570312 -1.796875 5.703125 -2.164062 5.703125 -2.65625 L 5.703125 -3 L 3.90625 -3 L 3.90625 -4.21875 L 7.21875 -4.21875 L 7.21875 0 L 5.765625 0 L 5.765625 -1.03125 L 5.65625 -1.046875 C 5.5 -0.671875 5.257812 -0.382812 4.9375 -0.1875 C 4.625 0.0078125 4.21875 0.109375 3.71875 0.109375 Z M 3.71875 0.109375 "/></g></g></g><g fill="#004aad" fill-opacity="1"><g transform="translate(290.207233, 11.784283)"><g><path d="M 2.5 -3.359375 L 2.5 -1.265625 L 6.15625 -1.265625 L 6.15625 0 L 1 0 L 1 -7.65625 L 6.078125 -7.65625 L 6.078125 -6.390625 L 2.5 -6.390625 L 2.5 -4.59375 L 5.625 -4.59375 L 5.625 -3.359375 Z M 2.5 -3.359375 "/></g></g></g><g fill="#004aad" fill-opacity="1"><g transform="translate(296.787802, 11.784283)"><g><path d="M 6.140625 -7.65625 L 6.140625 -6.375 L 3.921875 -6.375 L 3.921875 0 L 2.421875 0 L 2.421875 -6.375 L 0.203125 -6.375 L 0.203125 -7.65625 Z M 6.140625 -7.65625 "/></g></g></g><g fill="#004aad" fill-opacity="1"><g transform="translate(303.132771, 11.784283)"><g><path d="M 5.9375 -4.765625 L 5.9375 -7.65625 L 7.4375 -7.65625 L 7.4375 0 L 5.9375 0 L 5.9375 -3.484375 L 2.5 -3.484375 L 2.5 0 L 1 0 L 1 -7.65625 L 2.5 -7.65625 L 2.5 -4.765625 Z M 5.9375 -4.765625 "/></g></g></g><g fill="#004aad" fill-opacity="1"><g transform="translate(311.577036, 11.784283)"><g><path d="M 2.5 -3.359375 L 2.5 -1.265625 L 6.15625 -1.265625 L 6.15625 0 L 1 0 L 1 -7.65625 L 6.078125 -7.65625 L 6.078125 -6.390625 L 2.5 -6.390625 L 2.5 -4.59375 L 5.625 -4.59375 L 5.625 -3.359375 Z M 2.5 -3.359375 "/></g></g></g><g fill="#004aad" fill-opacity="1"><g transform="translate(318.157605, 11.784283)"><g><path d="M 1 0 L 1 -7.65625 L 4.0625 -7.65625 C 4.851562 -7.65625 5.453125 -7.472656 5.859375 -7.109375 C 6.265625 -6.742188 6.46875 -6.238281 6.46875 -5.59375 C 6.46875 -5.132812 6.347656 -4.753906 6.109375 -4.453125 C 5.867188 -4.160156 5.519531 -3.9375 5.0625 -3.78125 L 5.0625 -3.65625 C 5.300781 -3.550781 5.492188 -3.394531 5.640625 -3.1875 C 5.785156 -2.988281 5.925781 -2.6875 6.0625 -2.28125 L 6.828125 0 L 5.265625 0 L 4.515625 -2.28125 C 4.441406 -2.507812 4.359375 -2.6875 4.265625 -2.8125 C 4.171875 -2.945312 4.046875 -3.039062 3.890625 -3.09375 C 3.742188 -3.15625 3.550781 -3.1875 3.3125 -3.1875 L 2.5 -3.1875 L 2.5 0 Z M 3.890625 -4.390625 C 4.617188 -4.390625 4.984375 -4.726562 4.984375 -5.40625 C 4.984375 -6.101562 4.617188 -6.453125 3.890625 -6.453125 L 2.5 -6.453125 L 2.5 -4.390625 Z M 3.890625 -4.390625 "/></g></g></g></g></g></svg>