<svg xmlns="http://www.w3.org/2000/svg" xmlns:xlink="http://www.w3.org/1999/xlink" width="500" zoomAndPan="magnify" viewBox="0 0 375 374.999991" height="500" preserveAspectRatio="xMidYMid meet" version="1.0"><defs><g/><clipPath id="3802ee8328"><path d="M 187 97.820312 L 250.527344 97.820312 L 250.527344 218.570312 L 187 218.570312 Z M 187 97.820312 " clip-rule="nonzero"/></clipPath><clipPath id="322dfdfc58"><path d="M 124.527344 97.820312 L 188 97.820312 L 188 218.570312 L 124.527344 218.570312 Z M 124.527344 97.820312 " clip-rule="nonzero"/></clipPath></defs><g clip-path="url(#3802ee8328)"><path fill="#3871c1" d="M 187.507812 97.824219 L 187.507812 106.089844 C 190.304688 106.589844 197.597656 107.996094 206.765625 110.65625 C 216.203125 113.398438 229.410156 118 241.445312 124.914062 C 240.078125 131.511719 237.046875 143.703125 231.234375 157.199219 C 226.230469 168.808594 220.167969 179.105469 213.214844 187.804688 C 209.394531 192.578125 205.300781 196.878906 200.949219 200.679688 C 197.394531 203.785156 191.835938 201.191406 191.902344 196.464844 C 192.148438 179.28125 192.90625 159.078125 195.085938 156.636719 C 196.617188 154.921875 199.042969 155.117188 201.414062 155.976562 C 203.6875 156.808594 204.382812 159.683594 202.71875 161.449219 C 202.703125 161.464844 202.691406 161.480469 202.675781 161.496094 C 196.417969 168.136719 201.074219 176.203125 208.78125 175.273438 C 217.824219 174.183594 225.269531 164.855469 225.269531 152.007812 C 225.269531 139.15625 217.890625 128.742188 208.78125 128.742188 C 202.210938 128.742188 195.59375 133.289062 197.972656 142.183594 C 199.203125 146.789062 203.238281 148.910156 205.636719 151.136719 C 201.972656 150.652344 197.449219 150.449219 194.882812 151.816406 C 189.523438 154.671875 189.195312 190.074219 189.414062 209.222656 C 189.460938 213.164062 189.53125 216.417969 189.582031 218.554688 C 190.332031 218.144531 191.074219 217.726562 191.804688 217.296875 C 241.136719 188.433594 250.464844 120.863281 250.464844 120.863281 C 223.242188 103.292969 187.507812 97.824219 187.507812 97.824219 " fill-opacity="1" fill-rule="nonzero"/></g><g clip-path="url(#322dfdfc58)"><path fill="#80cc28" d="M 153.058594 153.667969 C 152.855469 155.769531 152.871094 157.792969 153.078125 159.714844 C 152.449219 157.460938 152.101562 154.996094 152.101562 152.371094 C 152.101562 140.796875 158.75 131.414062 166.953125 131.414062 C 169.355469 131.414062 171.765625 132.09375 173.636719 133.429688 C 172.777344 133.167969 171.886719 132.992188 170.988281 132.90625 C 162.269531 132.070312 154.242188 141.363281 153.058594 153.667969 Z M 124.550781 120.863281 C 124.550781 120.863281 133.882812 188.433594 183.214844 217.296875 C 183.484375 217.457031 183.761719 217.613281 184.035156 217.769531 C 184.5 218.035156 184.964844 218.296875 185.4375 218.554688 C 185.488281 216.417969 185.558594 213.164062 185.605469 209.222656 C 185.824219 190.074219 185.496094 154.671875 180.136719 151.816406 C 177.570312 150.449219 173.042969 150.652344 169.382812 151.136719 C 171.777344 148.910156 175.816406 146.789062 177.046875 142.183594 C 179.425781 133.289062 172.808594 128.742188 166.238281 128.742188 C 157.128906 128.742188 149.75 139.15625 149.75 152.007812 C 149.75 164.855469 157.195312 174.183594 166.238281 175.273438 C 173.945312 176.203125 178.597656 168.136719 172.34375 161.496094 C 172.328125 161.480469 172.3125 161.464844 172.296875 161.445312 C 170.636719 159.683594 171.328125 156.808594 173.605469 155.976562 C 175.976562 155.117188 178.402344 154.921875 179.929688 156.636719 C 182.113281 159.078125 182.871094 179.28125 183.117188 196.464844 C 183.183594 201.191406 177.621094 203.78125 174.0625 200.671875 C 169.660156 196.824219 165.515625 192.464844 161.652344 187.613281 C 154.683594 178.855469 148.613281 168.488281 143.617188 156.804688 C 137.882812 143.402344 134.914062 131.425781 133.566406 124.917969 C 145.605469 118 158.8125 113.398438 168.253906 110.65625 C 177.417969 108 184.710938 106.589844 187.507812 106.089844 L 187.507812 97.824219 C 187.507812 97.824219 151.777344 103.292969 124.550781 120.863281 " fill-opacity="1" fill-rule="nonzero"/></g><g fill="#044274" fill-opacity="1"><g transform="translate(130.453121, 257.985672)"><g><path d="M 6.265625 -26.53125 L 6.265625 0 L 2.921875 0 L 2.921875 -26.53125 Z M 6.265625 -26.53125 "/></g></g></g><g fill="#044274" fill-opacity="1"><g transform="translate(139.647246, 257.985672)"><g><path d="M 6.125 -21.734375 L 6.125 0 L 2.921875 0 L 2.921875 -26.53125 L 7.0625 -26.53125 L 17.0625 -4.640625 L 17.140625 -4.640625 L 17.140625 -26.53125 L 20.328125 -26.53125 L 20.328125 0 L 16.1875 0 L 6.1875 -21.734375 Z M 6.125 -21.734375 "/></g></g></g><g fill="#044274" fill-opacity="1"><g transform="translate(162.898492, 257.985672)"><g><path d="M 6.984375 -2.625 C 8.359375 -2.625 9.484375 -3.019531 10.359375 -3.8125 C 11.234375 -4.613281 11.671875 -5.625 11.671875 -6.84375 C 11.671875 -7.570312 11.570312 -8.191406 11.375 -8.703125 C 11.1875 -9.210938 10.796875 -9.742188 10.203125 -10.296875 C 9.609375 -10.859375 8.675781 -11.519531 7.40625 -12.28125 C 5.96875 -13.164062 4.859375 -13.9375 4.078125 -14.59375 C 3.304688 -15.25 2.71875 -16.003906 2.3125 -16.859375 C 1.90625 -17.722656 1.703125 -18.804688 1.703125 -20.109375 C 1.703125 -22.179688 2.382812 -23.8125 3.75 -25 C 5.125 -26.195312 6.898438 -26.796875 9.078125 -26.796875 C 9.890625 -26.796875 10.734375 -26.710938 11.609375 -26.546875 C 12.484375 -26.378906 13.238281 -26.171875 13.875 -25.921875 L 13.875 -22.6875 C 13.238281 -23.0625 12.523438 -23.359375 11.734375 -23.578125 C 10.953125 -23.796875 10.171875 -23.90625 9.390625 -23.90625 C 8.148438 -23.90625 7.140625 -23.53125 6.359375 -22.78125 C 5.585938 -22.03125 5.203125 -21.085938 5.203125 -19.953125 C 5.203125 -18.941406 5.523438 -18.097656 6.171875 -17.421875 C 6.816406 -16.753906 8.023438 -15.910156 9.796875 -14.890625 C 11.828125 -13.703125 13.226562 -12.5 14 -11.28125 C 14.769531 -10.070312 15.15625 -8.734375 15.15625 -7.265625 C 15.15625 -5.003906 14.472656 -3.179688 13.109375 -1.796875 C 11.742188 -0.421875 9.84375 0.265625 7.40625 0.265625 C 6.394531 0.265625 5.398438 0.164062 4.421875 -0.03125 C 3.453125 -0.238281 2.613281 -0.519531 1.90625 -0.875 L 1.90625 -4.328125 C 3.875 -3.191406 5.566406 -2.625 6.984375 -2.625 Z M 6.984375 -2.625 "/></g></g></g><g fill="#044274" fill-opacity="1"><g transform="translate(179.767048, 257.985672)"><g><path d="M 9.46875 -26.53125 C 11.789062 -26.53125 13.648438 -25.84375 15.046875 -24.46875 C 16.441406 -23.101562 17.140625 -21.28125 17.140625 -19 C 17.140625 -16.394531 16.394531 -14.425781 14.90625 -13.09375 C 13.425781 -11.757812 11.332031 -11.09375 8.625 -11.09375 L 6.265625 -11.09375 L 6.265625 0 L 2.921875 0 L 2.921875 -26.53125 Z M 13.640625 -18.703125 C 13.640625 -20.316406 13.210938 -21.566406 12.359375 -22.453125 C 11.515625 -23.335938 10.082031 -23.78125 8.0625 -23.78125 L 6.265625 -23.78125 L 6.265625 -13.828125 L 7.90625 -13.828125 C 10.007812 -13.828125 11.488281 -14.242188 12.34375 -15.078125 C 13.207031 -15.921875 13.640625 -17.128906 13.640625 -18.703125 Z M 13.640625 -18.703125 "/></g></g></g><g fill="#044274" fill-opacity="1"><g transform="translate(198.041316, 257.985672)"><g><path d="M 6.265625 -26.53125 L 6.265625 0 L 2.921875 0 L 2.921875 -26.53125 Z M 6.265625 -26.53125 "/></g></g></g><g fill="#044274" fill-opacity="1"><g transform="translate(207.235441, 257.985672)"><g><path d="M 7.40625 -12.015625 L 6.265625 -12.015625 L 6.265625 0 L 2.921875 0 L 2.921875 -26.53125 L 9.875 -26.53125 C 12.363281 -26.53125 14.222656 -25.875 15.453125 -24.5625 C 16.679688 -23.257812 17.296875 -21.617188 17.296875 -19.640625 C 17.296875 -17.972656 16.847656 -16.585938 15.953125 -15.484375 C 15.066406 -14.378906 13.765625 -13.648438 12.046875 -13.296875 L 12.046875 -13.21875 C 12.859375 -13.070312 13.476562 -12.796875 13.90625 -12.390625 C 14.332031 -11.984375 14.675781 -11.398438 14.9375 -10.640625 L 18.65625 0 L 15.046875 0 L 11.96875 -9.078125 C 11.664062 -9.941406 11.3125 -10.582031 10.90625 -11 C 10.5 -11.414062 10.03125 -11.6875 9.5 -11.8125 C 8.96875 -11.945312 8.269531 -12.015625 7.40625 -12.015625 Z M 13.796875 -19.421875 C 13.796875 -20.835938 13.363281 -21.914062 12.5 -22.65625 C 11.632812 -23.40625 10.46875 -23.78125 9 -23.78125 L 6.265625 -23.78125 L 6.265625 -14.75 L 8.96875 -14.75 C 10.4375 -14.75 11.609375 -15.171875 12.484375 -16.015625 C 13.359375 -16.867188 13.796875 -18.003906 13.796875 -19.421875 Z M 13.796875 -19.421875 "/></g></g></g><g fill="#044274" fill-opacity="1"><g transform="translate(226.953415, 257.985672)"><g><path d="M 15.28125 -26.53125 L 15.28125 -23.640625 L 6.265625 -23.640625 L 6.265625 -15.203125 L 14.859375 -15.203125 L 14.859375 -12.3125 L 6.265625 -12.3125 L 6.265625 -2.890625 L 15.765625 -2.890625 L 15.765625 0 L 2.921875 0 L 2.921875 -26.53125 Z M 15.28125 -26.53125 "/></g></g></g><g fill="#737373" fill-opacity="1"><g transform="translate(31.521842, 282.735685)"><g><path d="M 8.640625 0 L 7.953125 0 C 7.785156 0 7.65625 -0.03125 7.5625 -0.09375 C 7.46875 -0.15625 7.378906 -0.257812 7.296875 -0.40625 L 3.5625 -6.234375 L 2.921875 -7.3125 L 2.890625 -7.3125 L 2.890625 -0.96875 L 3.890625 -0.96875 C 3.992188 -0.96875 4.046875 -0.914062 4.046875 -0.8125 L 4.046875 -0.15625 C 4.046875 -0.0507812 3.992188 0 3.890625 0 L 0.78125 0 C 0.675781 0 0.625 -0.0507812 0.625 -0.15625 L 0.625 -0.8125 C 0.625 -0.914062 0.675781 -0.96875 0.78125 -0.96875 L 1.765625 -0.96875 L 1.765625 -8.296875 L 0.78125 -8.296875 C 0.675781 -8.296875 0.625 -8.347656 0.625 -8.453125 L 0.625 -9.109375 C 0.625 -9.210938 0.675781 -9.265625 0.78125 -9.265625 L 2.59375 -9.265625 C 2.84375 -9.265625 3.0625 -9.117188 3.25 -8.828125 L 6.9375 -3.078125 L 7.671875 -1.8125 L 7.6875 -1.8125 L 7.6875 -8.296875 L 6.703125 -8.296875 C 6.597656 -8.296875 6.546875 -8.347656 6.546875 -8.453125 L 6.546875 -9.109375 C 6.546875 -9.210938 6.597656 -9.265625 6.703125 -9.265625 L 9.8125 -9.265625 C 9.914062 -9.265625 9.96875 -9.210938 9.96875 -9.109375 L 9.96875 -8.453125 C 9.96875 -8.347656 9.914062 -8.296875 9.8125 -8.296875 L 8.8125 -8.296875 L 8.8125 -0.15625 C 8.8125 -0.0507812 8.753906 0 8.640625 0 Z M 8.640625 0 "/></g></g></g><g fill="#737373" fill-opacity="1"><g transform="translate(44.41525, 282.735685)"><g><path d="M 9.90625 0 L 7 0 C 6.894531 0 6.84375 -0.0507812 6.84375 -0.15625 L 6.84375 -0.8125 C 6.84375 -0.914062 6.894531 -0.96875 7 -0.96875 L 7.90625 -0.96875 L 7.0625 -3.203125 L 3.453125 -3.203125 L 2.625 -0.96875 L 3.515625 -0.96875 C 3.617188 -0.96875 3.671875 -0.914062 3.671875 -0.8125 L 3.671875 -0.15625 C 3.671875 -0.0507812 3.617188 0 3.515625 0 L 0.625 0 C 0.519531 0 0.46875 -0.0507812 0.46875 -0.15625 L 0.46875 -0.8125 C 0.46875 -0.914062 0.519531 -0.96875 0.625 -0.96875 L 1.484375 -0.96875 L 4.265625 -8.296875 L 3.5625 -8.296875 C 3.445312 -8.296875 3.390625 -8.347656 3.390625 -8.453125 L 3.390625 -9.109375 C 3.390625 -9.210938 3.445312 -9.265625 3.5625 -9.265625 L 5.3125 -9.265625 C 5.519531 -9.265625 5.675781 -9.222656 5.78125 -9.140625 C 5.894531 -9.054688 5.988281 -8.914062 6.0625 -8.71875 L 9.03125 -0.96875 L 9.90625 -0.96875 C 10.007812 -0.96875 10.0625 -0.914062 10.0625 -0.8125 L 10.0625 -0.15625 C 10.0625 -0.0507812 10.007812 0 9.90625 0 Z M 6.71875 -4.09375 L 5.28125 -7.921875 L 5.234375 -7.921875 L 3.796875 -4.09375 Z M 6.71875 -4.09375 "/></g></g></g><g fill="#737373" fill-opacity="1"><g transform="translate(57.579367, 282.735685)"><g><path d="M 5.734375 0 L 5.234375 0 C 5.066406 0 4.9375 -0.0351562 4.84375 -0.109375 C 4.757812 -0.191406 4.6875 -0.328125 4.625 -0.515625 L 1.609375 -8.296875 L 0.78125 -8.296875 C 0.675781 -8.296875 0.625 -8.347656 0.625 -8.453125 L 0.625 -9.109375 C 0.625 -9.210938 0.675781 -9.265625 0.78125 -9.265625 L 3.6875 -9.265625 C 3.789062 -9.265625 3.84375 -9.210938 3.84375 -9.109375 L 3.84375 -8.453125 C 3.84375 -8.347656 3.789062 -8.296875 3.6875 -8.296875 L 2.8125 -8.296875 L 5.4375 -1.375 L 5.515625 -1.375 L 8.125 -8.296875 L 7.25 -8.296875 C 7.132812 -8.296875 7.078125 -8.347656 7.078125 -8.453125 L 7.078125 -9.109375 C 7.078125 -9.210938 7.132812 -9.265625 7.25 -9.265625 L 10.15625 -9.265625 C 10.269531 -9.265625 10.328125 -9.210938 10.328125 -9.109375 L 10.328125 -8.453125 C 10.328125 -8.347656 10.269531 -8.296875 10.15625 -8.296875 L 9.3125 -8.296875 L 6.328125 -0.515625 C 6.265625 -0.335938 6.191406 -0.207031 6.109375 -0.125 C 6.023438 -0.0390625 5.898438 0 5.734375 0 Z M 5.734375 0 "/></g></g></g><g fill="#737373" fill-opacity="1"><g transform="translate(70.833722, 282.735685)"><g><path d="M 3.890625 0 L 0.78125 0 C 0.675781 0 0.625 -0.0507812 0.625 -0.15625 L 0.625 -0.8125 C 0.625 -0.914062 0.675781 -0.96875 0.78125 -0.96875 L 1.765625 -0.96875 L 1.765625 -8.296875 L 0.78125 -8.296875 C 0.675781 -8.296875 0.625 -8.347656 0.625 -8.453125 L 0.625 -9.109375 C 0.625 -9.210938 0.675781 -9.265625 0.78125 -9.265625 L 3.890625 -9.265625 C 3.992188 -9.265625 4.046875 -9.210938 4.046875 -9.109375 L 4.046875 -8.453125 C 4.046875 -8.347656 3.992188 -8.296875 3.890625 -8.296875 L 2.890625 -8.296875 L 2.890625 -0.96875 L 3.890625 -0.96875 C 3.992188 -0.96875 4.046875 -0.914062 4.046875 -0.8125 L 4.046875 -0.15625 C 4.046875 -0.0507812 3.992188 0 3.890625 0 Z M 3.890625 0 "/></g></g></g><g fill="#737373" fill-opacity="1"><g transform="translate(77.823192, 282.735685)"><g><path d="M 8.90625 0 L 8.21875 0 C 8.101562 0 8.046875 -0.0507812 8.046875 -0.15625 L 8.0625 -1.046875 C 7.3125 -0.285156 6.304688 0.09375 5.046875 0.09375 C 3.785156 0.09375 2.734375 -0.34375 1.890625 -1.21875 C 1.046875 -2.101562 0.625 -3.257812 0.625 -4.6875 C 0.625 -5.644531 0.832031 -6.484375 1.25 -7.203125 C 1.675781 -7.921875 2.21875 -8.457031 2.875 -8.8125 C 3.539062 -9.164062 4.253906 -9.34375 5.015625 -9.34375 C 6.335938 -9.34375 7.285156 -8.9375 7.859375 -8.125 L 7.84375 -9.109375 C 7.832031 -9.210938 7.882812 -9.265625 8 -9.265625 L 8.71875 -9.265625 C 8.832031 -9.265625 8.890625 -9.210938 8.890625 -9.109375 L 8.890625 -6.453125 C 8.890625 -6.347656 8.832031 -6.296875 8.71875 -6.296875 L 7.90625 -6.296875 C 7.800781 -6.296875 7.75 -6.347656 7.75 -6.453125 L 7.75 -6.609375 C 7.75 -6.984375 7.488281 -7.351562 6.96875 -7.71875 C 6.445312 -8.09375 5.78125 -8.28125 4.96875 -8.28125 C 4.164062 -8.28125 3.4375 -7.945312 2.78125 -7.28125 C 2.132812 -6.613281 1.8125 -5.722656 1.8125 -4.609375 C 1.8125 -3.492188 2.140625 -2.613281 2.796875 -1.96875 C 3.453125 -1.320312 4.179688 -1 4.984375 -1 C 5.796875 -1 6.4375 -1.125 6.90625 -1.375 C 7.375 -1.632812 7.726562 -1.941406 7.96875 -2.296875 L 7.96875 -3.296875 L 5.5625 -3.296875 C 5.457031 -3.296875 5.40625 -3.351562 5.40625 -3.46875 L 5.40625 -4.0625 C 5.40625 -4.164062 5.457031 -4.21875 5.5625 -4.21875 L 8.90625 -4.21875 C 9.007812 -4.21875 9.0625 -4.164062 9.0625 -4.0625 L 9.0625 -0.15625 C 9.0625 -0.0507812 9.007812 0 8.90625 0 Z M 8.90625 0 "/></g></g></g><g fill="#737373" fill-opacity="1"><g transform="translate(89.814259, 282.735685)"><g><path d="M 9.90625 0 L 7 0 C 6.894531 0 6.84375 -0.0507812 6.84375 -0.15625 L 6.84375 -0.8125 C 6.84375 -0.914062 6.894531 -0.96875 7 -0.96875 L 7.90625 -0.96875 L 7.0625 -3.203125 L 3.453125 -3.203125 L 2.625 -0.96875 L 3.515625 -0.96875 C 3.617188 -0.96875 3.671875 -0.914062 3.671875 -0.8125 L 3.671875 -0.15625 C 3.671875 -0.0507812 3.617188 0 3.515625 0 L 0.625 0 C 0.519531 0 0.46875 -0.0507812 0.46875 -0.15625 L 0.46875 -0.8125 C 0.46875 -0.914062 0.519531 -0.96875 0.625 -0.96875 L 1.484375 -0.96875 L 4.265625 -8.296875 L 3.5625 -8.296875 C 3.445312 -8.296875 3.390625 -8.347656 3.390625 -8.453125 L 3.390625 -9.109375 C 3.390625 -9.210938 3.445312 -9.265625 3.5625 -9.265625 L 5.3125 -9.265625 C 5.519531 -9.265625 5.675781 -9.222656 5.78125 -9.140625 C 5.894531 -9.054688 5.988281 -8.914062 6.0625 -8.71875 L 9.03125 -0.96875 L 9.90625 -0.96875 C 10.007812 -0.96875 10.0625 -0.914062 10.0625 -0.8125 L 10.0625 -0.15625 C 10.0625 -0.0507812 10.007812 0 9.90625 0 Z M 6.71875 -4.09375 L 5.28125 -7.921875 L 5.234375 -7.921875 L 3.796875 -4.09375 Z M 6.71875 -4.09375 "/></g></g></g><g fill="#737373" fill-opacity="1"><g transform="translate(102.97838, 282.735685)"><g><path d="M 6.171875 0 L 3.15625 0 C 3.050781 0 3 -0.0546875 3 -0.171875 L 3 -0.796875 C 3 -0.910156 3.050781 -0.96875 3.15625 -0.96875 L 4.140625 -0.96875 L 4.140625 -8.296875 L 1.703125 -8.296875 L 1.703125 -6.9375 C 1.703125 -6.8125 1.640625 -6.75 1.515625 -6.75 L 0.796875 -6.75 C 0.679688 -6.75 0.625 -6.8125 0.625 -6.9375 L 0.625 -9.09375 C 0.625 -9.207031 0.679688 -9.265625 0.796875 -9.265625 L 8.578125 -9.265625 C 8.703125 -9.265625 8.765625 -9.207031 8.765625 -9.09375 L 8.765625 -6.9375 C 8.765625 -6.8125 8.703125 -6.75 8.578125 -6.75 L 7.84375 -6.75 C 7.726562 -6.75 7.671875 -6.8125 7.671875 -6.9375 L 7.671875 -8.296875 L 5.265625 -8.296875 L 5.265625 -0.96875 L 6.171875 -0.96875 C 6.285156 -0.96875 6.34375 -0.910156 6.34375 -0.796875 L 6.34375 -0.171875 C 6.34375 -0.0546875 6.285156 0 6.171875 0 Z M 6.171875 0 "/></g></g></g><g fill="#737373" fill-opacity="1"><g transform="translate(114.672953, 282.735685)"><g><path d="M 3.890625 0 L 0.78125 0 C 0.675781 0 0.625 -0.0507812 0.625 -0.15625 L 0.625 -0.8125 C 0.625 -0.914062 0.675781 -0.96875 0.78125 -0.96875 L 1.765625 -0.96875 L 1.765625 -8.296875 L 0.78125 -8.296875 C 0.675781 -8.296875 0.625 -8.347656 0.625 -8.453125 L 0.625 -9.109375 C 0.625 -9.210938 0.675781 -9.265625 0.78125 -9.265625 L 3.890625 -9.265625 C 3.992188 -9.265625 4.046875 -9.210938 4.046875 -9.109375 L 4.046875 -8.453125 C 4.046875 -8.347656 3.992188 -8.296875 3.890625 -8.296875 L 2.890625 -8.296875 L 2.890625 -0.96875 L 3.890625 -0.96875 C 3.992188 -0.96875 4.046875 -0.914062 4.046875 -0.8125 L 4.046875 -0.15625 C 4.046875 -0.0507812 3.992188 0 3.890625 0 Z M 3.890625 0 "/></g></g></g><g fill="#737373" fill-opacity="1"><g transform="translate(121.662426, 282.735685)"><g><path d="M 8.640625 0 L 7.953125 0 C 7.785156 0 7.65625 -0.03125 7.5625 -0.09375 C 7.46875 -0.15625 7.378906 -0.257812 7.296875 -0.40625 L 3.5625 -6.234375 L 2.921875 -7.3125 L 2.890625 -7.3125 L 2.890625 -0.96875 L 3.890625 -0.96875 C 3.992188 -0.96875 4.046875 -0.914062 4.046875 -0.8125 L 4.046875 -0.15625 C 4.046875 -0.0507812 3.992188 0 3.890625 0 L 0.78125 0 C 0.675781 0 0.625 -0.0507812 0.625 -0.15625 L 0.625 -0.8125 C 0.625 -0.914062 0.675781 -0.96875 0.78125 -0.96875 L 1.765625 -0.96875 L 1.765625 -8.296875 L 0.78125 -8.296875 C 0.675781 -8.296875 0.625 -8.347656 0.625 -8.453125 L 0.625 -9.109375 C 0.625 -9.210938 0.675781 -9.265625 0.78125 -9.265625 L 2.59375 -9.265625 C 2.84375 -9.265625 3.0625 -9.117188 3.25 -8.828125 L 6.9375 -3.078125 L 7.671875 -1.8125 L 7.6875 -1.8125 L 7.6875 -8.296875 L 6.703125 -8.296875 C 6.597656 -8.296875 6.546875 -8.347656 6.546875 -8.453125 L 6.546875 -9.109375 C 6.546875 -9.210938 6.597656 -9.265625 6.703125 -9.265625 L 9.8125 -9.265625 C 9.914062 -9.265625 9.96875 -9.210938 9.96875 -9.109375 L 9.96875 -8.453125 C 9.96875 -8.347656 9.914062 -8.296875 9.8125 -8.296875 L 8.8125 -8.296875 L 8.8125 -0.15625 C 8.8125 -0.0507812 8.753906 0 8.640625 0 Z M 8.640625 0 "/></g></g></g><g fill="#737373" fill-opacity="1"><g transform="translate(134.555831, 282.735685)"><g><path d="M 8.90625 0 L 8.21875 0 C 8.101562 0 8.046875 -0.0507812 8.046875 -0.15625 L 8.0625 -1.046875 C 7.3125 -0.285156 6.304688 0.09375 5.046875 0.09375 C 3.785156 0.09375 2.734375 -0.34375 1.890625 -1.21875 C 1.046875 -2.101562 0.625 -3.257812 0.625 -4.6875 C 0.625 -5.644531 0.832031 -6.484375 1.25 -7.203125 C 1.675781 -7.921875 2.21875 -8.457031 2.875 -8.8125 C 3.539062 -9.164062 4.253906 -9.34375 5.015625 -9.34375 C 6.335938 -9.34375 7.285156 -8.9375 7.859375 -8.125 L 7.84375 -9.109375 C 7.832031 -9.210938 7.882812 -9.265625 8 -9.265625 L 8.71875 -9.265625 C 8.832031 -9.265625 8.890625 -9.210938 8.890625 -9.109375 L 8.890625 -6.453125 C 8.890625 -6.347656 8.832031 -6.296875 8.71875 -6.296875 L 7.90625 -6.296875 C 7.800781 -6.296875 7.75 -6.347656 7.75 -6.453125 L 7.75 -6.609375 C 7.75 -6.984375 7.488281 -7.351562 6.96875 -7.71875 C 6.445312 -8.09375 5.78125 -8.28125 4.96875 -8.28125 C 4.164062 -8.28125 3.4375 -7.945312 2.78125 -7.28125 C 2.132812 -6.613281 1.8125 -5.722656 1.8125 -4.609375 C 1.8125 -3.492188 2.140625 -2.613281 2.796875 -1.96875 C 3.453125 -1.320312 4.179688 -1 4.984375 -1 C 5.796875 -1 6.4375 -1.125 6.90625 -1.375 C 7.375 -1.632812 7.726562 -1.941406 7.96875 -2.296875 L 7.96875 -3.296875 L 5.5625 -3.296875 C 5.457031 -3.296875 5.40625 -3.351562 5.40625 -3.46875 L 5.40625 -4.0625 C 5.40625 -4.164062 5.457031 -4.21875 5.5625 -4.21875 L 8.90625 -4.21875 C 9.007812 -4.21875 9.0625 -4.164062 9.0625 -4.0625 L 9.0625 -0.15625 C 9.0625 -0.0507812 9.007812 0 8.90625 0 Z M 8.90625 0 "/></g></g></g><g fill="#737373" fill-opacity="1"><g transform="translate(146.546893, 282.735685)"><g/></g></g><g fill="#737373" fill-opacity="1"><g transform="translate(152.904715, 282.735685)"><g><path d="M 6.171875 0 L 3.15625 0 C 3.050781 0 3 -0.0546875 3 -0.171875 L 3 -0.796875 C 3 -0.910156 3.050781 -0.96875 3.15625 -0.96875 L 4.140625 -0.96875 L 4.140625 -8.296875 L 1.703125 -8.296875 L 1.703125 -6.9375 C 1.703125 -6.8125 1.640625 -6.75 1.515625 -6.75 L 0.796875 -6.75 C 0.679688 -6.75 0.625 -6.8125 0.625 -6.9375 L 0.625 -9.09375 C 0.625 -9.207031 0.679688 -9.265625 0.796875 -9.265625 L 8.578125 -9.265625 C 8.703125 -9.265625 8.765625 -9.207031 8.765625 -9.09375 L 8.765625 -6.9375 C 8.765625 -6.8125 8.703125 -6.75 8.578125 -6.75 L 7.84375 -6.75 C 7.726562 -6.75 7.671875 -6.8125 7.671875 -6.9375 L 7.671875 -8.296875 L 5.265625 -8.296875 L 5.265625 -0.96875 L 6.171875 -0.96875 C 6.285156 -0.96875 6.34375 -0.910156 6.34375 -0.796875 L 6.34375 -0.171875 C 6.34375 -0.0546875 6.285156 0 6.171875 0 Z M 6.171875 0 "/></g></g></g><g fill="#737373" fill-opacity="1"><g transform="translate(164.599283, 282.735685)"><g><path d="M 9.8125 0 L 6.703125 0 C 6.597656 0 6.546875 -0.0507812 6.546875 -0.15625 L 6.546875 -0.8125 C 6.546875 -0.914062 6.597656 -0.96875 6.703125 -0.96875 L 7.6875 -0.96875 L 7.6875 -4.125 L 2.890625 -4.125 L 2.890625 -0.96875 L 3.890625 -0.96875 C 3.992188 -0.96875 4.046875 -0.914062 4.046875 -0.8125 L 4.046875 -0.15625 C 4.046875 -0.0507812 3.992188 0 3.890625 0 L 0.78125 0 C 0.675781 0 0.625 -0.0507812 0.625 -0.15625 L 0.625 -0.8125 C 0.625 -0.914062 0.675781 -0.96875 0.78125 -0.96875 L 1.765625 -0.96875 L 1.765625 -8.296875 L 0.78125 -8.296875 C 0.675781 -8.296875 0.625 -8.347656 0.625 -8.453125 L 0.625 -9.109375 C 0.625 -9.210938 0.675781 -9.265625 0.78125 -9.265625 L 3.890625 -9.265625 C 3.992188 -9.265625 4.046875 -9.210938 4.046875 -9.109375 L 4.046875 -8.453125 C 4.046875 -8.347656 3.992188 -8.296875 3.890625 -8.296875 L 2.890625 -8.296875 L 2.890625 -5.078125 L 7.6875 -5.078125 L 7.6875 -8.296875 L 6.703125 -8.296875 C 6.597656 -8.296875 6.546875 -8.347656 6.546875 -8.453125 L 6.546875 -9.109375 C 6.546875 -9.210938 6.597656 -9.265625 6.703125 -9.265625 L 9.8125 -9.265625 C 9.914062 -9.265625 9.96875 -9.210938 9.96875 -9.109375 L 9.96875 -8.453125 C 9.96875 -8.347656 9.914062 -8.296875 9.8125 -8.296875 L 8.8125 -8.296875 L 8.8125 -0.96875 L 9.8125 -0.96875 C 9.914062 -0.96875 9.96875 -0.914062 9.96875 -0.8125 L 9.96875 -0.15625 C 9.96875 -0.0507812 9.914062 0 9.8125 0 Z M 9.8125 0 "/></g></g></g><g fill="#737373" fill-opacity="1"><g transform="translate(177.492688, 282.735685)"><g><path d="M 7.640625 0 L 0.78125 0 C 0.675781 0 0.625 -0.0507812 0.625 -0.15625 L 0.625 -0.8125 C 0.625 -0.914062 0.675781 -0.96875 0.78125 -0.96875 L 1.765625 -0.96875 L 1.765625 -8.296875 L 0.78125 -8.296875 C 0.675781 -8.296875 0.625 -8.347656 0.625 -8.453125 L 0.625 -9.109375 C 0.625 -9.210938 0.675781 -9.265625 0.78125 -9.265625 L 7.640625 -9.265625 C 7.753906 -9.265625 7.8125 -9.210938 7.8125 -9.109375 L 7.8125 -7.03125 C 7.8125 -6.914062 7.753906 -6.859375 7.640625 -6.859375 L 6.9375 -6.859375 C 6.832031 -6.859375 6.78125 -6.914062 6.78125 -7.03125 L 6.78125 -8.296875 L 2.890625 -8.296875 L 2.890625 -5.09375 L 6.15625 -5.09375 C 6.269531 -5.09375 6.328125 -5.039062 6.328125 -4.9375 L 6.328125 -4.28125 C 6.328125 -4.175781 6.269531 -4.125 6.15625 -4.125 L 2.890625 -4.125 L 2.890625 -0.96875 L 6.78125 -0.96875 L 6.78125 -2.234375 C 6.78125 -2.335938 6.832031 -2.390625 6.9375 -2.390625 L 7.640625 -2.390625 C 7.753906 -2.390625 7.8125 -2.335938 7.8125 -2.234375 L 7.8125 -0.15625 C 7.8125 -0.0507812 7.753906 0 7.640625 0 Z M 7.640625 0 "/></g></g></g><g fill="#737373" fill-opacity="1"><g transform="translate(188.233345, 282.735685)"><g/></g></g><g fill="#737373" fill-opacity="1"><g transform="translate(194.591167, 282.735685)"><g><path d="M 11.09375 0 L 8.109375 0 C 8.003906 0 7.953125 -0.0507812 7.953125 -0.15625 L 7.953125 -0.8125 C 7.953125 -0.914062 8.003906 -0.96875 8.109375 -0.96875 L 8.96875 -0.96875 L 8.96875 -7.390625 L 8.953125 -7.390625 L 6.5 -1.296875 C 6.394531 -1.046875 6.207031 -0.921875 5.9375 -0.921875 C 5.664062 -0.921875 5.476562 -1.046875 5.375 -1.296875 L 2.921875 -7.390625 L 2.890625 -7.390625 L 2.890625 -0.96875 L 3.75 -0.96875 C 3.863281 -0.96875 3.921875 -0.914062 3.921875 -0.8125 L 3.921875 -0.15625 C 3.921875 -0.0507812 3.863281 0 3.75 0 L 0.78125 0 C 0.675781 0 0.625 -0.0507812 0.625 -0.15625 L 0.625 -0.8125 C 0.625 -0.914062 0.675781 -0.96875 0.78125 -0.96875 L 1.765625 -0.96875 L 1.765625 -8.296875 L 0.78125 -8.296875 C 0.675781 -8.296875 0.625 -8.347656 0.625 -8.453125 L 0.625 -9.109375 C 0.625 -9.210938 0.675781 -9.265625 0.78125 -9.265625 L 2.78125 -9.265625 C 3.070312 -9.265625 3.269531 -9.117188 3.375 -8.828125 L 5.296875 -4.1875 L 5.90625 -2.5625 L 5.96875 -2.5625 C 6.207031 -3.226562 6.40625 -3.757812 6.5625 -4.15625 L 8.5 -8.828125 C 8.601562 -9.117188 8.804688 -9.265625 9.109375 -9.265625 L 11.09375 -9.265625 C 11.1875 -9.265625 11.234375 -9.210938 11.234375 -9.109375 L 11.234375 -8.453125 C 11.234375 -8.347656 11.1875 -8.296875 11.09375 -8.296875 L 10.09375 -8.296875 L 10.09375 -0.96875 L 11.09375 -0.96875 C 11.1875 -0.96875 11.234375 -0.914062 11.234375 -0.8125 L 11.234375 -0.15625 C 11.234375 -0.0507812 11.1875 0 11.09375 0 Z M 11.09375 0 "/></g></g></g><g fill="#737373" fill-opacity="1"><g transform="translate(208.760748, 282.735685)"><g><path d="M 9.90625 0 L 7 0 C 6.894531 0 6.84375 -0.0507812 6.84375 -0.15625 L 6.84375 -0.8125 C 6.84375 -0.914062 6.894531 -0.96875 7 -0.96875 L 7.90625 -0.96875 L 7.0625 -3.203125 L 3.453125 -3.203125 L 2.625 -0.96875 L 3.515625 -0.96875 C 3.617188 -0.96875 3.671875 -0.914062 3.671875 -0.8125 L 3.671875 -0.15625 C 3.671875 -0.0507812 3.617188 0 3.515625 0 L 0.625 0 C 0.519531 0 0.46875 -0.0507812 0.46875 -0.15625 L 0.46875 -0.8125 C 0.46875 -0.914062 0.519531 -0.96875 0.625 -0.96875 L 1.484375 -0.96875 L 4.265625 -8.296875 L 3.5625 -8.296875 C 3.445312 -8.296875 3.390625 -8.347656 3.390625 -8.453125 L 3.390625 -9.109375 C 3.390625 -9.210938 3.445312 -9.265625 3.5625 -9.265625 L 5.3125 -9.265625 C 5.519531 -9.265625 5.675781 -9.222656 5.78125 -9.140625 C 5.894531 -9.054688 5.988281 -8.914062 6.0625 -8.71875 L 9.03125 -0.96875 L 9.90625 -0.96875 C 10.007812 -0.96875 10.0625 -0.914062 10.0625 -0.8125 L 10.0625 -0.15625 C 10.0625 -0.0507812 10.007812 0 9.90625 0 Z M 6.71875 -4.09375 L 5.28125 -7.921875 L 5.234375 -7.921875 L 3.796875 -4.09375 Z M 6.71875 -4.09375 "/></g></g></g><g fill="#737373" fill-opacity="1"><g transform="translate(221.924863, 282.735685)"><g><path d="M 7.484375 0 L 0.796875 0 C 0.679688 0 0.625 -0.0546875 0.625 -0.171875 L 0.625 -0.71875 C 0.625 -0.8125 0.707031 -0.957031 0.875 -1.15625 L 6.125 -8.296875 L 1.703125 -8.296875 L 1.703125 -7.25 C 1.703125 -7.132812 1.640625 -7.078125 1.515625 -7.078125 L 0.796875 -7.078125 C 0.679688 -7.078125 0.625 -7.132812 0.625 -7.25 L 0.625 -9.09375 C 0.625 -9.207031 0.679688 -9.265625 0.796875 -9.265625 L 7.484375 -9.265625 C 7.597656 -9.265625 7.65625 -9.207031 7.65625 -9.09375 L 7.65625 -8.625 C 7.65625 -8.476562 7.566406 -8.300781 7.390625 -8.09375 L 2.15625 -0.96875 L 6.578125 -0.96875 L 6.578125 -2.015625 C 6.578125 -2.128906 6.632812 -2.1875 6.75 -2.1875 L 7.484375 -2.1875 C 7.597656 -2.1875 7.65625 -2.128906 7.65625 -2.015625 L 7.65625 -0.171875 C 7.65625 -0.0546875 7.597656 0 7.484375 0 Z M 7.484375 0 "/></g></g></g><g fill="#737373" fill-opacity="1"><g transform="translate(232.510842, 282.735685)"><g><path d="M 7.640625 0 L 0.78125 0 C 0.675781 0 0.625 -0.0507812 0.625 -0.15625 L 0.625 -0.8125 C 0.625 -0.914062 0.675781 -0.96875 0.78125 -0.96875 L 1.765625 -0.96875 L 1.765625 -8.296875 L 0.78125 -8.296875 C 0.675781 -8.296875 0.625 -8.347656 0.625 -8.453125 L 0.625 -9.109375 C 0.625 -9.210938 0.675781 -9.265625 0.78125 -9.265625 L 7.640625 -9.265625 C 7.753906 -9.265625 7.8125 -9.210938 7.8125 -9.109375 L 7.8125 -7.03125 C 7.8125 -6.914062 7.753906 -6.859375 7.640625 -6.859375 L 6.9375 -6.859375 C 6.832031 -6.859375 6.78125 -6.914062 6.78125 -7.03125 L 6.78125 -8.296875 L 2.890625 -8.296875 L 2.890625 -5.09375 L 6.15625 -5.09375 C 6.269531 -5.09375 6.328125 -5.039062 6.328125 -4.9375 L 6.328125 -4.28125 C 6.328125 -4.175781 6.269531 -4.125 6.15625 -4.125 L 2.890625 -4.125 L 2.890625 -0.96875 L 6.78125 -0.96875 L 6.78125 -2.234375 C 6.78125 -2.335938 6.832031 -2.390625 6.9375 -2.390625 L 7.640625 -2.390625 C 7.753906 -2.390625 7.8125 -2.335938 7.8125 -2.234375 L 7.8125 -0.15625 C 7.8125 -0.0507812 7.753906 0 7.640625 0 Z M 7.640625 0 "/></g></g></g><g fill="#737373" fill-opacity="1"><g transform="translate(243.251511, 282.735685)"><g/></g></g><g fill="#737373" fill-opacity="1"><g transform="translate(249.609344, 282.735685)"><g><path d="M 9.609375 -4.671875 C 9.609375 -3.265625 9.179688 -2.117188 8.328125 -1.234375 C 7.484375 -0.347656 6.414062 0.09375 5.125 0.09375 C 3.84375 0.09375 2.769531 -0.347656 1.90625 -1.234375 C 1.050781 -2.128906 0.625 -3.28125 0.625 -4.6875 C 0.625 -6.09375 1.066406 -7.21875 1.953125 -8.0625 C 2.835938 -8.914062 3.894531 -9.34375 5.125 -9.34375 C 6.351562 -9.34375 7.40625 -8.914062 8.28125 -8.0625 C 9.164062 -7.21875 9.609375 -6.085938 9.609375 -4.671875 Z M 2.8125 -1.9375 C 3.476562 -1.28125 4.25 -0.953125 5.125 -0.953125 C 6 -0.953125 6.765625 -1.28125 7.421875 -1.9375 C 8.078125 -2.601562 8.40625 -3.507812 8.40625 -4.65625 C 8.40625 -5.800781 8.070312 -6.695312 7.40625 -7.34375 C 6.738281 -8 5.976562 -8.328125 5.125 -8.328125 C 4.269531 -8.328125 3.503906 -8 2.828125 -7.34375 C 2.160156 -6.695312 1.828125 -5.800781 1.828125 -4.65625 C 1.828125 -3.507812 2.15625 -2.601562 2.8125 -1.9375 Z M 2.8125 -1.9375 "/></g></g></g><g fill="#737373" fill-opacity="1"><g transform="translate(262.1547, 282.735685)"><g><path d="M 4.34375 0 L 0.78125 0 C 0.675781 0 0.625 -0.0507812 0.625 -0.15625 L 0.625 -0.8125 C 0.625 -0.914062 0.675781 -0.96875 0.78125 -0.96875 L 1.765625 -0.96875 L 1.765625 -8.296875 L 0.78125 -8.296875 C 0.675781 -8.296875 0.625 -8.347656 0.625 -8.453125 L 0.625 -9.109375 C 0.625 -9.210938 0.675781 -9.265625 0.78125 -9.265625 L 7.40625 -9.265625 C 7.519531 -9.265625 7.578125 -9.210938 7.578125 -9.109375 L 7.578125 -7.03125 C 7.578125 -6.914062 7.519531 -6.859375 7.40625 -6.859375 L 6.71875 -6.859375 C 6.613281 -6.859375 6.5625 -6.914062 6.5625 -7.03125 L 6.5625 -8.296875 L 2.890625 -8.296875 L 2.890625 -5.09375 L 5.921875 -5.09375 C 6.035156 -5.09375 6.09375 -5.039062 6.09375 -4.9375 L 6.09375 -4.28125 C 6.09375 -4.175781 6.035156 -4.125 5.921875 -4.125 L 2.890625 -4.125 L 2.890625 -0.96875 L 4.34375 -0.96875 C 4.445312 -0.96875 4.5 -0.914062 4.5 -0.8125 L 4.5 -0.15625 C 4.5 -0.0507812 4.445312 0 4.34375 0 Z M 4.34375 0 "/></g></g></g><g fill="#737373" fill-opacity="1"><g transform="translate(272.663328, 282.735685)"><g/></g></g><g fill="#737373" fill-opacity="1"><g transform="translate(279.021162, 282.735685)"><g><path d="M 9.0625 0 L 7.9375 0 C 7.625 0 7.363281 -0.207031 7.15625 -0.625 L 5.953125 -3.078125 C 5.878906 -3.222656 5.8125 -3.332031 5.75 -3.40625 C 5.695312 -3.476562 5.578125 -3.550781 5.390625 -3.625 C 5.210938 -3.707031 4.984375 -3.75 4.703125 -3.75 L 2.890625 -3.75 L 2.890625 -0.96875 L 4.078125 -0.96875 C 4.191406 -0.96875 4.25 -0.914062 4.25 -0.8125 L 4.25 -0.15625 C 4.25 -0.0507812 4.191406 0 4.078125 0 L 0.78125 0 C 0.675781 0 0.625 -0.0507812 0.625 -0.15625 L 0.625 -0.8125 C 0.625 -0.914062 0.675781 -0.96875 0.78125 -0.96875 L 1.765625 -0.96875 L 1.765625 -8.296875 L 0.78125 -8.296875 C 0.675781 -8.296875 0.625 -8.347656 0.625 -8.453125 L 0.625 -9.109375 C 0.625 -9.210938 0.675781 -9.265625 0.78125 -9.265625 L 3.671875 -9.265625 C 3.773438 -9.265625 3.828125 -9.210938 3.828125 -9.109375 L 3.828125 -8.453125 C 3.828125 -8.347656 3.773438 -8.296875 3.671875 -8.296875 L 2.890625 -8.296875 L 2.890625 -4.671875 L 4.25 -4.671875 C 5.15625 -4.671875 5.828125 -4.9375 6.265625 -5.46875 C 6.710938 -6.007812 6.9375 -6.953125 6.9375 -8.296875 L 6.0625 -8.296875 C 5.957031 -8.296875 5.90625 -8.347656 5.90625 -8.453125 L 5.90625 -9.109375 C 5.90625 -9.210938 5.957031 -9.265625 6.0625 -9.265625 L 8.9375 -9.265625 C 9.039062 -9.265625 9.09375 -9.210938 9.09375 -9.109375 L 9.09375 -8.453125 C 9.09375 -8.347656 9.039062 -8.296875 8.9375 -8.296875 L 8.046875 -8.296875 C 8.046875 -6.222656 7.460938 -4.867188 6.296875 -4.234375 C 6.492188 -4.140625 6.648438 -4.015625 6.765625 -3.859375 C 6.878906 -3.710938 7.007812 -3.492188 7.15625 -3.203125 L 8.265625 -0.96875 L 9.0625 -0.96875 C 9.164062 -0.96875 9.21875 -0.914062 9.21875 -0.8125 L 9.21875 -0.15625 C 9.21875 -0.0507812 9.164062 0 9.0625 0 Z M 9.0625 0 "/></g></g></g><g fill="#737373" fill-opacity="1"><g transform="translate(291.179799, 282.735685)"><g><path d="M 3.890625 0 L 0.78125 0 C 0.675781 0 0.625 -0.0507812 0.625 -0.15625 L 0.625 -0.8125 C 0.625 -0.914062 0.675781 -0.96875 0.78125 -0.96875 L 1.765625 -0.96875 L 1.765625 -8.296875 L 0.78125 -8.296875 C 0.675781 -8.296875 0.625 -8.347656 0.625 -8.453125 L 0.625 -9.109375 C 0.625 -9.210938 0.675781 -9.265625 0.78125 -9.265625 L 3.890625 -9.265625 C 3.992188 -9.265625 4.046875 -9.210938 4.046875 -9.109375 L 4.046875 -8.453125 C 4.046875 -8.347656 3.992188 -8.296875 3.890625 -8.296875 L 2.890625 -8.296875 L 2.890625 -0.96875 L 3.890625 -0.96875 C 3.992188 -0.96875 4.046875 -0.914062 4.046875 -0.8125 L 4.046875 -0.15625 C 4.046875 -0.0507812 3.992188 0 3.890625 0 Z M 3.890625 0 "/></g></g></g><g fill="#737373" fill-opacity="1"><g transform="translate(298.169277, 282.735685)"><g><path d="M 4.40625 0 L 0.703125 0 C 0.609375 0 0.5625 -0.0507812 0.5625 -0.15625 L 0.5625 -0.8125 C 0.5625 -0.914062 0.609375 -0.96875 0.703125 -0.96875 L 1.703125 -0.96875 L 1.703125 -8.296875 L 0.703125 -8.296875 C 0.609375 -8.296875 0.5625 -8.347656 0.5625 -8.453125 L 0.5625 -9.109375 C 0.5625 -9.210938 0.609375 -9.265625 0.703125 -9.265625 L 4.1875 -9.265625 C 5.625 -9.265625 6.757812 -8.851562 7.59375 -8.03125 C 8.4375 -7.207031 8.859375 -6.078125 8.859375 -4.640625 C 8.859375 -3.203125 8.457031 -2.066406 7.65625 -1.234375 C 6.863281 -0.410156 5.78125 0 4.40625 0 Z M 2.828125 -0.96875 L 4.109375 -0.96875 C 6.492188 -0.988281 7.6875 -2.207031 7.6875 -4.625 C 7.6875 -5.78125 7.378906 -6.679688 6.765625 -7.328125 C 6.148438 -7.972656 5.25 -8.296875 4.0625 -8.296875 L 2.828125 -8.296875 Z M 2.828125 -0.96875 "/></g></g></g><g fill="#737373" fill-opacity="1"><g transform="translate(310.031444, 282.735685)"><g><path d="M 8.640625 0 L 7.953125 0 C 7.785156 0 7.65625 -0.03125 7.5625 -0.09375 C 7.46875 -0.15625 7.378906 -0.257812 7.296875 -0.40625 L 3.5625 -6.234375 L 2.921875 -7.3125 L 2.890625 -7.3125 L 2.890625 -0.96875 L 3.890625 -0.96875 C 3.992188 -0.96875 4.046875 -0.914062 4.046875 -0.8125 L 4.046875 -0.15625 C 4.046875 -0.0507812 3.992188 0 3.890625 0 L 0.78125 0 C 0.675781 0 0.625 -0.0507812 0.625 -0.15625 L 0.625 -0.8125 C 0.625 -0.914062 0.675781 -0.96875 0.78125 -0.96875 L 1.765625 -0.96875 L 1.765625 -8.296875 L 0.78125 -8.296875 C 0.675781 -8.296875 0.625 -8.347656 0.625 -8.453125 L 0.625 -9.109375 C 0.625 -9.210938 0.675781 -9.265625 0.78125 -9.265625 L 2.59375 -9.265625 C 2.84375 -9.265625 3.0625 -9.117188 3.25 -8.828125 L 6.9375 -3.078125 L 7.671875 -1.8125 L 7.6875 -1.8125 L 7.6875 -8.296875 L 6.703125 -8.296875 C 6.597656 -8.296875 6.546875 -8.347656 6.546875 -8.453125 L 6.546875 -9.109375 C 6.546875 -9.210938 6.597656 -9.265625 6.703125 -9.265625 L 9.8125 -9.265625 C 9.914062 -9.265625 9.96875 -9.210938 9.96875 -9.109375 L 9.96875 -8.453125 C 9.96875 -8.347656 9.914062 -8.296875 9.8125 -8.296875 L 8.8125 -8.296875 L 8.8125 -0.15625 C 8.8125 -0.0507812 8.753906 0 8.640625 0 Z M 8.640625 0 "/></g></g></g><g fill="#737373" fill-opacity="1"><g transform="translate(322.92486, 282.735685)"><g><path d="M 7.640625 0 L 0.78125 0 C 0.675781 0 0.625 -0.0507812 0.625 -0.15625 L 0.625 -0.8125 C 0.625 -0.914062 0.675781 -0.96875 0.78125 -0.96875 L 1.765625 -0.96875 L 1.765625 -8.296875 L 0.78125 -8.296875 C 0.675781 -8.296875 0.625 -8.347656 0.625 -8.453125 L 0.625 -9.109375 C 0.625 -9.210938 0.675781 -9.265625 0.78125 -9.265625 L 7.640625 -9.265625 C 7.753906 -9.265625 7.8125 -9.210938 7.8125 -9.109375 L 7.8125 -7.03125 C 7.8125 -6.914062 7.753906 -6.859375 7.640625 -6.859375 L 6.9375 -6.859375 C 6.832031 -6.859375 6.78125 -6.914062 6.78125 -7.03125 L 6.78125 -8.296875 L 2.890625 -8.296875 L 2.890625 -5.09375 L 6.15625 -5.09375 C 6.269531 -5.09375 6.328125 -5.039062 6.328125 -4.9375 L 6.328125 -4.28125 C 6.328125 -4.175781 6.269531 -4.125 6.15625 -4.125 L 2.890625 -4.125 L 2.890625 -0.96875 L 6.78125 -0.96875 L 6.78125 -2.234375 C 6.78125 -2.335938 6.832031 -2.390625 6.9375 -2.390625 L 7.640625 -2.390625 C 7.753906 -2.390625 7.8125 -2.335938 7.8125 -2.234375 L 7.8125 -0.15625 C 7.8125 -0.0507812 7.753906 0 7.640625 0 Z M 7.640625 0 "/></g></g></g><g fill="#737373" fill-opacity="1"><g transform="translate(333.665529, 282.735685)"><g><path d="M 6.453125 0 L 3.34375 0 C 3.238281 0 3.1875 -0.0507812 3.1875 -0.15625 L 3.1875 -0.8125 C 3.1875 -0.914062 3.238281 -0.96875 3.34375 -0.96875 L 4.34375 -0.96875 L 4.34375 -3.734375 L 3.8125 -4.625 C 2.695312 -6.613281 1.984375 -7.835938 1.671875 -8.296875 L 0.78125 -8.296875 C 0.675781 -8.296875 0.625 -8.347656 0.625 -8.453125 L 0.625 -9.109375 C 0.625 -9.210938 0.675781 -9.265625 0.78125 -9.265625 L 3.6875 -9.265625 C 3.789062 -9.265625 3.84375 -9.210938 3.84375 -9.109375 L 3.84375 -8.453125 C 3.84375 -8.347656 3.789062 -8.296875 3.6875 -8.296875 L 2.84375 -8.296875 L 4.859375 -4.703125 L 4.9375 -4.703125 L 6.953125 -8.296875 L 6.109375 -8.296875 C 6.003906 -8.296875 5.953125 -8.347656 5.953125 -8.453125 L 5.953125 -9.109375 C 5.953125 -9.210938 6.003906 -9.265625 6.109375 -9.265625 L 9.015625 -9.265625 C 9.117188 -9.265625 9.171875 -9.210938 9.171875 -9.109375 L 9.171875 -8.453125 C 9.171875 -8.347656 9.117188 -8.296875 9.015625 -8.296875 L 8.125 -8.296875 C 7.707031 -7.679688 7.160156 -6.769531 6.484375 -5.5625 C 5.804688 -4.351562 5.460938 -3.75 5.453125 -3.75 L 5.453125 -0.96875 L 6.453125 -0.96875 C 6.554688 -0.96875 6.609375 -0.914062 6.609375 -0.8125 L 6.609375 -0.15625 C 6.609375 -0.0507812 6.554688 0 6.453125 0 Z M 6.453125 0 "/></g></g></g><g fill="#737373" fill-opacity="1"><g transform="translate(71.049183, 297.735684)"><g><path d="M 6.171875 0 L 3.15625 0 C 3.050781 0 3 -0.0546875 3 -0.171875 L 3 -0.796875 C 3 -0.910156 3.050781 -0.96875 3.15625 -0.96875 L 4.140625 -0.96875 L 4.140625 -8.296875 L 1.703125 -8.296875 L 1.703125 -6.9375 C 1.703125 -6.8125 1.640625 -6.75 1.515625 -6.75 L 0.796875 -6.75 C 0.679688 -6.75 0.625 -6.8125 0.625 -6.9375 L 0.625 -9.09375 C 0.625 -9.207031 0.679688 -9.265625 0.796875 -9.265625 L 8.578125 -9.265625 C 8.703125 -9.265625 8.765625 -9.207031 8.765625 -9.09375 L 8.765625 -6.9375 C 8.765625 -6.8125 8.703125 -6.75 8.578125 -6.75 L 7.84375 -6.75 C 7.726562 -6.75 7.671875 -6.8125 7.671875 -6.9375 L 7.671875 -8.296875 L 5.265625 -8.296875 L 5.265625 -0.96875 L 6.171875 -0.96875 C 6.285156 -0.96875 6.34375 -0.910156 6.34375 -0.796875 L 6.34375 -0.171875 C 6.34375 -0.0546875 6.285156 0 6.171875 0 Z M 6.171875 0 "/></g></g></g><g fill="#737373" fill-opacity="1"><g transform="translate(82.743754, 297.735684)"><g><path d="M 8.453125 0 L 7.328125 0 C 7.015625 0 6.757812 -0.207031 6.5625 -0.625 L 5.34375 -3.078125 C 5.238281 -3.296875 5.128906 -3.457031 5.015625 -3.5625 C 4.898438 -3.664062 4.738281 -3.722656 4.53125 -3.734375 L 2.890625 -3.734375 L 2.890625 -0.96875 L 4.046875 -0.96875 C 4.148438 -0.96875 4.203125 -0.914062 4.203125 -0.8125 L 4.203125 -0.15625 C 4.203125 -0.0507812 4.148438 0 4.046875 0 L 0.78125 0 C 0.675781 0 0.625 -0.0507812 0.625 -0.15625 L 0.625 -0.8125 C 0.625 -0.914062 0.675781 -0.96875 0.78125 -0.96875 L 1.765625 -0.96875 L 1.765625 -8.296875 L 0.78125 -8.296875 C 0.675781 -8.296875 0.625 -8.347656 0.625 -8.453125 L 0.625 -9.109375 C 0.625 -9.210938 0.675781 -9.265625 0.78125 -9.265625 L 4.765625 -9.265625 C 5.679688 -9.265625 6.425781 -9.019531 7 -8.53125 C 7.582031 -8.050781 7.875 -7.367188 7.875 -6.484375 C 7.875 -5.128906 7.238281 -4.285156 5.96875 -3.953125 C 6.132812 -3.816406 6.335938 -3.523438 6.578125 -3.078125 L 7.671875 -0.96875 L 8.453125 -0.96875 C 8.554688 -0.96875 8.609375 -0.914062 8.609375 -0.8125 L 8.609375 -0.15625 C 8.609375 -0.0507812 8.554688 0 8.453125 0 Z M 2.890625 -4.640625 L 4.546875 -4.640625 C 6.003906 -4.640625 6.734375 -5.238281 6.734375 -6.4375 C 6.734375 -7.675781 6.003906 -8.296875 4.546875 -8.296875 L 2.890625 -8.296875 Z M 2.890625 -4.640625 "/></g></g></g><g fill="#737373" fill-opacity="1"><g transform="translate(94.283636, 297.735684)"><g><path d="M 9.90625 0 L 7 0 C 6.894531 0 6.84375 -0.0507812 6.84375 -0.15625 L 6.84375 -0.8125 C 6.84375 -0.914062 6.894531 -0.96875 7 -0.96875 L 7.90625 -0.96875 L 7.0625 -3.203125 L 3.453125 -3.203125 L 2.625 -0.96875 L 3.515625 -0.96875 C 3.617188 -0.96875 3.671875 -0.914062 3.671875 -0.8125 L 3.671875 -0.15625 C 3.671875 -0.0507812 3.617188 0 3.515625 0 L 0.625 0 C 0.519531 0 0.46875 -0.0507812 0.46875 -0.15625 L 0.46875 -0.8125 C 0.46875 -0.914062 0.519531 -0.96875 0.625 -0.96875 L 1.484375 -0.96875 L 4.265625 -8.296875 L 3.5625 -8.296875 C 3.445312 -8.296875 3.390625 -8.347656 3.390625 -8.453125 L 3.390625 -9.109375 C 3.390625 -9.210938 3.445312 -9.265625 3.5625 -9.265625 L 5.3125 -9.265625 C 5.519531 -9.265625 5.675781 -9.222656 5.78125 -9.140625 C 5.894531 -9.054688 5.988281 -8.914062 6.0625 -8.71875 L 9.03125 -0.96875 L 9.90625 -0.96875 C 10.007812 -0.96875 10.0625 -0.914062 10.0625 -0.8125 L 10.0625 -0.15625 C 10.0625 -0.0507812 10.007812 0 9.90625 0 Z M 6.71875 -4.09375 L 5.28125 -7.921875 L 5.234375 -7.921875 L 3.796875 -4.09375 Z M 6.71875 -4.09375 "/></g></g></g><g fill="#737373" fill-opacity="1"><g transform="translate(107.447755, 297.735684)"><g><path d="M 8.640625 0 L 7.953125 0 C 7.785156 0 7.65625 -0.03125 7.5625 -0.09375 C 7.46875 -0.15625 7.378906 -0.257812 7.296875 -0.40625 L 3.5625 -6.234375 L 2.921875 -7.3125 L 2.890625 -7.3125 L 2.890625 -0.96875 L 3.890625 -0.96875 C 3.992188 -0.96875 4.046875 -0.914062 4.046875 -0.8125 L 4.046875 -0.15625 C 4.046875 -0.0507812 3.992188 0 3.890625 0 L 0.78125 0 C 0.675781 0 0.625 -0.0507812 0.625 -0.15625 L 0.625 -0.8125 C 0.625 -0.914062 0.675781 -0.96875 0.78125 -0.96875 L 1.765625 -0.96875 L 1.765625 -8.296875 L 0.78125 -8.296875 C 0.675781 -8.296875 0.625 -8.347656 0.625 -8.453125 L 0.625 -9.109375 C 0.625 -9.210938 0.675781 -9.265625 0.78125 -9.265625 L 2.59375 -9.265625 C 2.84375 -9.265625 3.0625 -9.117188 3.25 -8.828125 L 6.9375 -3.078125 L 7.671875 -1.8125 L 7.6875 -1.8125 L 7.6875 -8.296875 L 6.703125 -8.296875 C 6.597656 -8.296875 6.546875 -8.347656 6.546875 -8.453125 L 6.546875 -9.109375 C 6.546875 -9.210938 6.597656 -9.265625 6.703125 -9.265625 L 9.8125 -9.265625 C 9.914062 -9.265625 9.96875 -9.210938 9.96875 -9.109375 L 9.96875 -8.453125 C 9.96875 -8.347656 9.914062 -8.296875 9.8125 -8.296875 L 8.8125 -8.296875 L 8.8125 -0.15625 C 8.8125 -0.0507812 8.753906 0 8.640625 0 Z M 8.640625 0 "/></g></g></g><g fill="#737373" fill-opacity="1"><g transform="translate(120.34116, 297.735684)"><g><path d="M 1.515625 0 L 0.78125 0 C 0.675781 0 0.625 -0.0507812 0.625 -0.15625 L 0.625 -3.171875 C 0.625 -3.285156 0.675781 -3.34375 0.78125 -3.34375 L 1.59375 -3.34375 C 1.695312 -3.34375 1.75 -3.285156 1.75 -3.171875 L 1.75 -2.90625 C 1.75 -2.738281 1.847656 -2.519531 2.046875 -2.25 C 2.242188 -1.976562 2.441406 -1.753906 2.640625 -1.578125 C 2.835938 -1.410156 3.101562 -1.265625 3.4375 -1.140625 C 3.769531 -1.015625 4.128906 -0.953125 4.515625 -0.953125 C 5.179688 -0.953125 5.703125 -1.085938 6.078125 -1.359375 C 6.453125 -1.640625 6.640625 -2.023438 6.640625 -2.515625 C 6.640625 -2.796875 6.53125 -3.035156 6.3125 -3.234375 C 6.101562 -3.441406 5.832031 -3.601562 5.5 -3.71875 C 5.164062 -3.84375 4.789062 -3.957031 4.375 -4.0625 C 3.96875 -4.164062 3.5625 -4.285156 3.15625 -4.421875 C 2.75 -4.554688 2.375 -4.710938 2.03125 -4.890625 C 1.695312 -5.078125 1.425781 -5.335938 1.21875 -5.671875 C 1.007812 -6.003906 0.90625 -6.394531 0.90625 -6.84375 C 0.90625 -7.5625 1.175781 -8.15625 1.71875 -8.625 C 2.269531 -9.101562 3.003906 -9.34375 3.921875 -9.34375 C 5.085938 -9.34375 5.941406 -9.003906 6.484375 -8.328125 L 6.453125 -9.125 C 6.453125 -9.226562 6.507812 -9.28125 6.625 -9.28125 L 7.34375 -9.28125 C 7.445312 -9.28125 7.5 -9.226562 7.5 -9.125 L 7.5 -6.3125 C 7.5 -6.207031 7.445312 -6.15625 7.34375 -6.15625 L 6.53125 -6.15625 C 6.425781 -6.15625 6.375 -6.207031 6.375 -6.3125 L 6.375 -6.671875 C 6.375 -7.023438 6.175781 -7.378906 5.78125 -7.734375 C 5.382812 -8.097656 4.804688 -8.28125 4.046875 -8.28125 C 3.472656 -8.28125 3.007812 -8.144531 2.65625 -7.875 C 2.3125 -7.601562 2.140625 -7.257812 2.140625 -6.84375 C 2.140625 -6.539062 2.242188 -6.28125 2.453125 -6.0625 C 2.671875 -5.851562 2.953125 -5.679688 3.296875 -5.546875 C 3.640625 -5.421875 4.019531 -5.300781 4.4375 -5.1875 C 4.851562 -5.082031 5.265625 -4.960938 5.671875 -4.828125 C 6.085938 -4.703125 6.46875 -4.550781 6.8125 -4.375 C 7.15625 -4.195312 7.429688 -3.945312 7.640625 -3.625 C 7.859375 -3.3125 7.96875 -2.941406 7.96875 -2.515625 C 7.96875 -1.753906 7.695312 -1.128906 7.15625 -0.640625 C 6.613281 -0.148438 5.804688 0.09375 4.734375 0.09375 C 3.941406 0.09375 3.285156 -0.0625 2.765625 -0.375 C 2.253906 -0.695312 1.882812 -1.046875 1.65625 -1.421875 L 1.671875 -0.15625 C 1.671875 -0.0507812 1.617188 0 1.515625 0 Z M 1.515625 0 "/></g></g></g><g fill="#737373" fill-opacity="1"><g transform="translate(131.24941, 297.735684)"><g><path d="M 4.15625 0 L 0.78125 0 C 0.675781 0 0.625 -0.0507812 0.625 -0.15625 L 0.625 -0.8125 C 0.625 -0.914062 0.675781 -0.96875 0.78125 -0.96875 L 1.765625 -0.96875 L 1.765625 -8.296875 L 0.78125 -8.296875 C 0.675781 -8.296875 0.625 -8.347656 0.625 -8.453125 L 0.625 -9.109375 C 0.625 -9.210938 0.675781 -9.265625 0.78125 -9.265625 L 4.765625 -9.265625 C 5.671875 -9.265625 6.414062 -9 7 -8.46875 C 7.582031 -7.9375 7.875 -7.222656 7.875 -6.328125 C 7.875 -5.429688 7.585938 -4.734375 7.015625 -4.234375 C 6.453125 -3.742188 5.65625 -3.5 4.625 -3.5 L 2.890625 -3.5 L 2.890625 -0.96875 L 4.15625 -0.96875 C 4.257812 -0.96875 4.3125 -0.914062 4.3125 -0.8125 L 4.3125 -0.15625 C 4.3125 -0.0507812 4.257812 0 4.15625 0 Z M 2.890625 -4.40625 L 4.5625 -4.40625 C 6.007812 -4.40625 6.734375 -5.046875 6.734375 -6.328125 C 6.734375 -6.984375 6.53125 -7.472656 6.125 -7.796875 C 5.71875 -8.128906 5.203125 -8.296875 4.578125 -8.296875 L 2.890625 -8.296875 Z M 2.890625 -4.40625 "/></g></g></g><g fill="#737373" fill-opacity="1"><g transform="translate(142.054526, 297.735684)"><g><path d="M 7.84375 0 L 0.78125 0 C 0.675781 0 0.625 -0.0507812 0.625 -0.15625 L 0.625 -0.8125 C 0.625 -0.914062 0.675781 -0.96875 0.78125 -0.96875 L 1.765625 -0.96875 L 1.765625 -8.296875 L 0.78125 -8.296875 C 0.675781 -8.296875 0.625 -8.347656 0.625 -8.453125 L 0.625 -9.109375 C 0.625 -9.210938 0.675781 -9.265625 0.78125 -9.265625 L 3.875 -9.265625 C 3.988281 -9.265625 4.046875 -9.207031 4.046875 -9.09375 L 4.046875 -8.46875 C 4.046875 -8.351562 3.988281 -8.296875 3.875 -8.296875 L 2.890625 -8.296875 L 2.890625 -0.96875 L 7 -0.96875 L 7 -2.234375 C 7 -2.335938 7.050781 -2.390625 7.15625 -2.390625 L 7.859375 -2.390625 C 7.960938 -2.390625 8.015625 -2.335938 8.015625 -2.234375 L 8.015625 -0.171875 C 8.015625 -0.0546875 7.957031 0 7.84375 0 Z M 7.84375 0 "/></g></g></g><g fill="#737373" fill-opacity="1"><g transform="translate(153.014332, 297.735684)"><g><path d="M 9.90625 0 L 7 0 C 6.894531 0 6.84375 -0.0507812 6.84375 -0.15625 L 6.84375 -0.8125 C 6.84375 -0.914062 6.894531 -0.96875 7 -0.96875 L 7.90625 -0.96875 L 7.0625 -3.203125 L 3.453125 -3.203125 L 2.625 -0.96875 L 3.515625 -0.96875 C 3.617188 -0.96875 3.671875 -0.914062 3.671875 -0.8125 L 3.671875 -0.15625 C 3.671875 -0.0507812 3.617188 0 3.515625 0 L 0.625 0 C 0.519531 0 0.46875 -0.0507812 0.46875 -0.15625 L 0.46875 -0.8125 C 0.46875 -0.914062 0.519531 -0.96875 0.625 -0.96875 L 1.484375 -0.96875 L 4.265625 -8.296875 L 3.5625 -8.296875 C 3.445312 -8.296875 3.390625 -8.347656 3.390625 -8.453125 L 3.390625 -9.109375 C 3.390625 -9.210938 3.445312 -9.265625 3.5625 -9.265625 L 5.3125 -9.265625 C 5.519531 -9.265625 5.675781 -9.222656 5.78125 -9.140625 C 5.894531 -9.054688 5.988281 -8.914062 6.0625 -8.71875 L 9.03125 -0.96875 L 9.90625 -0.96875 C 10.007812 -0.96875 10.0625 -0.914062 10.0625 -0.8125 L 10.0625 -0.15625 C 10.0625 -0.0507812 10.007812 0 9.90625 0 Z M 6.71875 -4.09375 L 5.28125 -7.921875 L 5.234375 -7.921875 L 3.796875 -4.09375 Z M 6.71875 -4.09375 "/></g></g></g><g fill="#737373" fill-opacity="1"><g transform="translate(166.178452, 297.735684)"><g><path d="M 8.640625 0 L 7.953125 0 C 7.785156 0 7.65625 -0.03125 7.5625 -0.09375 C 7.46875 -0.15625 7.378906 -0.257812 7.296875 -0.40625 L 3.5625 -6.234375 L 2.921875 -7.3125 L 2.890625 -7.3125 L 2.890625 -0.96875 L 3.890625 -0.96875 C 3.992188 -0.96875 4.046875 -0.914062 4.046875 -0.8125 L 4.046875 -0.15625 C 4.046875 -0.0507812 3.992188 0 3.890625 0 L 0.78125 0 C 0.675781 0 0.625 -0.0507812 0.625 -0.15625 L 0.625 -0.8125 C 0.625 -0.914062 0.675781 -0.96875 0.78125 -0.96875 L 1.765625 -0.96875 L 1.765625 -8.296875 L 0.78125 -8.296875 C 0.675781 -8.296875 0.625 -8.347656 0.625 -8.453125 L 0.625 -9.109375 C 0.625 -9.210938 0.675781 -9.265625 0.78125 -9.265625 L 2.59375 -9.265625 C 2.84375 -9.265625 3.0625 -9.117188 3.25 -8.828125 L 6.9375 -3.078125 L 7.671875 -1.8125 L 7.6875 -1.8125 L 7.6875 -8.296875 L 6.703125 -8.296875 C 6.597656 -8.296875 6.546875 -8.347656 6.546875 -8.453125 L 6.546875 -9.109375 C 6.546875 -9.210938 6.597656 -9.265625 6.703125 -9.265625 L 9.8125 -9.265625 C 9.914062 -9.265625 9.96875 -9.210938 9.96875 -9.109375 L 9.96875 -8.453125 C 9.96875 -8.347656 9.914062 -8.296875 9.8125 -8.296875 L 8.8125 -8.296875 L 8.8125 -0.15625 C 8.8125 -0.0507812 8.753906 0 8.640625 0 Z M 8.640625 0 "/></g></g></g><g fill="#737373" fill-opacity="1"><g transform="translate(179.071858, 297.735684)"><g><path d="M 6.171875 0 L 3.15625 0 C 3.050781 0 3 -0.0546875 3 -0.171875 L 3 -0.796875 C 3 -0.910156 3.050781 -0.96875 3.15625 -0.96875 L 4.140625 -0.96875 L 4.140625 -8.296875 L 1.703125 -8.296875 L 1.703125 -6.9375 C 1.703125 -6.8125 1.640625 -6.75 1.515625 -6.75 L 0.796875 -6.75 C 0.679688 -6.75 0.625 -6.8125 0.625 -6.9375 L 0.625 -9.09375 C 0.625 -9.207031 0.679688 -9.265625 0.796875 -9.265625 L 8.578125 -9.265625 C 8.703125 -9.265625 8.765625 -9.207031 8.765625 -9.09375 L 8.765625 -6.9375 C 8.765625 -6.8125 8.703125 -6.75 8.578125 -6.75 L 7.84375 -6.75 C 7.726562 -6.75 7.671875 -6.8125 7.671875 -6.9375 L 7.671875 -8.296875 L 5.265625 -8.296875 L 5.265625 -0.96875 L 6.171875 -0.96875 C 6.285156 -0.96875 6.34375 -0.910156 6.34375 -0.796875 L 6.34375 -0.171875 C 6.34375 -0.0546875 6.285156 0 6.171875 0 Z M 6.171875 0 "/></g></g></g><g fill="#737373" fill-opacity="1"><g transform="translate(190.766425, 297.735684)"><g><path d="M 1.515625 0 L 0.78125 0 C 0.675781 0 0.625 -0.0507812 0.625 -0.15625 L 0.625 -3.171875 C 0.625 -3.285156 0.675781 -3.34375 0.78125 -3.34375 L 1.59375 -3.34375 C 1.695312 -3.34375 1.75 -3.285156 1.75 -3.171875 L 1.75 -2.90625 C 1.75 -2.738281 1.847656 -2.519531 2.046875 -2.25 C 2.242188 -1.976562 2.441406 -1.753906 2.640625 -1.578125 C 2.835938 -1.410156 3.101562 -1.265625 3.4375 -1.140625 C 3.769531 -1.015625 4.128906 -0.953125 4.515625 -0.953125 C 5.179688 -0.953125 5.703125 -1.085938 6.078125 -1.359375 C 6.453125 -1.640625 6.640625 -2.023438 6.640625 -2.515625 C 6.640625 -2.796875 6.53125 -3.035156 6.3125 -3.234375 C 6.101562 -3.441406 5.832031 -3.601562 5.5 -3.71875 C 5.164062 -3.84375 4.789062 -3.957031 4.375 -4.0625 C 3.96875 -4.164062 3.5625 -4.285156 3.15625 -4.421875 C 2.75 -4.554688 2.375 -4.710938 2.03125 -4.890625 C 1.695312 -5.078125 1.425781 -5.335938 1.21875 -5.671875 C 1.007812 -6.003906 0.90625 -6.394531 0.90625 -6.84375 C 0.90625 -7.5625 1.175781 -8.15625 1.71875 -8.625 C 2.269531 -9.101562 3.003906 -9.34375 3.921875 -9.34375 C 5.085938 -9.34375 5.941406 -9.003906 6.484375 -8.328125 L 6.453125 -9.125 C 6.453125 -9.226562 6.507812 -9.28125 6.625 -9.28125 L 7.34375 -9.28125 C 7.445312 -9.28125 7.5 -9.226562 7.5 -9.125 L 7.5 -6.3125 C 7.5 -6.207031 7.445312 -6.15625 7.34375 -6.15625 L 6.53125 -6.15625 C 6.425781 -6.15625 6.375 -6.207031 6.375 -6.3125 L 6.375 -6.671875 C 6.375 -7.023438 6.175781 -7.378906 5.78125 -7.734375 C 5.382812 -8.097656 4.804688 -8.28125 4.046875 -8.28125 C 3.472656 -8.28125 3.007812 -8.144531 2.65625 -7.875 C 2.3125 -7.601562 2.140625 -7.257812 2.140625 -6.84375 C 2.140625 -6.539062 2.242188 -6.28125 2.453125 -6.0625 C 2.671875 -5.851562 2.953125 -5.679688 3.296875 -5.546875 C 3.640625 -5.421875 4.019531 -5.300781 4.4375 -5.1875 C 4.851562 -5.082031 5.265625 -4.960938 5.671875 -4.828125 C 6.085938 -4.703125 6.46875 -4.550781 6.8125 -4.375 C 7.15625 -4.195312 7.429688 -3.945312 7.640625 -3.625 C 7.859375 -3.3125 7.96875 -2.941406 7.96875 -2.515625 C 7.96875 -1.753906 7.695312 -1.128906 7.15625 -0.640625 C 6.613281 -0.148438 5.804688 0.09375 4.734375 0.09375 C 3.941406 0.09375 3.285156 -0.0625 2.765625 -0.375 C 2.253906 -0.695312 1.882812 -1.046875 1.65625 -1.421875 L 1.671875 -0.15625 C 1.671875 -0.0507812 1.617188 0 1.515625 0 Z M 1.515625 0 "/></g></g></g><g fill="#737373" fill-opacity="1"><g transform="translate(201.67467, 297.735684)"><g><path d="M 0.578125 1.15625 L 0.578125 0.9375 C 0.578125 0.882812 0.625 0.859375 0.71875 0.859375 C 0.820312 0.859375 0.925781 0.800781 1.03125 0.6875 C 1.144531 0.570312 1.203125 0.40625 1.203125 0.1875 L 1.171875 0.03125 C 1.117188 0.0703125 1.023438 0.09375 0.890625 0.09375 C 0.765625 0.09375 0.644531 0.0390625 0.53125 -0.0625 C 0.414062 -0.175781 0.359375 -0.320312 0.359375 -0.5 C 0.359375 -0.675781 0.414062 -0.820312 0.53125 -0.9375 C 0.65625 -1.050781 0.816406 -1.109375 1.015625 -1.109375 C 1.210938 -1.109375 1.375 -1.023438 1.5 -0.859375 C 1.625 -0.703125 1.6875 -0.425781 1.6875 -0.03125 C 1.6875 0.363281 1.59375 0.671875 1.40625 0.890625 C 1.21875 1.109375 0.972656 1.21875 0.671875 1.21875 C 0.609375 1.21875 0.578125 1.195312 0.578125 1.15625 Z M 0.578125 1.15625 "/></g></g></g><g fill="#737373" fill-opacity="1"><g transform="translate(206.047331, 297.735684)"><g/></g></g><g fill="#737373" fill-opacity="1"><g transform="translate(212.405153, 297.735684)"><g><path d="M 6.171875 0 L 3.15625 0 C 3.050781 0 3 -0.0546875 3 -0.171875 L 3 -0.796875 C 3 -0.910156 3.050781 -0.96875 3.15625 -0.96875 L 4.140625 -0.96875 L 4.140625 -8.296875 L 1.703125 -8.296875 L 1.703125 -6.9375 C 1.703125 -6.8125 1.640625 -6.75 1.515625 -6.75 L 0.796875 -6.75 C 0.679688 -6.75 0.625 -6.8125 0.625 -6.9375 L 0.625 -9.09375 C 0.625 -9.207031 0.679688 -9.265625 0.796875 -9.265625 L 8.578125 -9.265625 C 8.703125 -9.265625 8.765625 -9.207031 8.765625 -9.09375 L 8.765625 -6.9375 C 8.765625 -6.8125 8.703125 -6.75 8.578125 -6.75 L 7.84375 -6.75 C 7.726562 -6.75 7.671875 -6.8125 7.671875 -6.9375 L 7.671875 -8.296875 L 5.265625 -8.296875 L 5.265625 -0.96875 L 6.171875 -0.96875 C 6.285156 -0.96875 6.34375 -0.910156 6.34375 -0.796875 L 6.34375 -0.171875 C 6.34375 -0.0546875 6.285156 0 6.171875 0 Z M 6.171875 0 "/></g></g></g><g fill="#737373" fill-opacity="1"><g transform="translate(224.099721, 297.735684)"><g><path d="M 9.609375 -4.671875 C 9.609375 -3.265625 9.179688 -2.117188 8.328125 -1.234375 C 7.484375 -0.347656 6.414062 0.09375 5.125 0.09375 C 3.84375 0.09375 2.769531 -0.347656 1.90625 -1.234375 C 1.050781 -2.128906 0.625 -3.28125 0.625 -4.6875 C 0.625 -6.09375 1.066406 -7.21875 1.953125 -8.0625 C 2.835938 -8.914062 3.894531 -9.34375 5.125 -9.34375 C 6.351562 -9.34375 7.40625 -8.914062 8.28125 -8.0625 C 9.164062 -7.21875 9.609375 -6.085938 9.609375 -4.671875 Z M 2.8125 -1.9375 C 3.476562 -1.28125 4.25 -0.953125 5.125 -0.953125 C 6 -0.953125 6.765625 -1.28125 7.421875 -1.9375 C 8.078125 -2.601562 8.40625 -3.507812 8.40625 -4.65625 C 8.40625 -5.800781 8.070312 -6.695312 7.40625 -7.34375 C 6.738281 -8 5.976562 -8.328125 5.125 -8.328125 C 4.269531 -8.328125 3.503906 -8 2.828125 -7.34375 C 2.160156 -6.695312 1.828125 -5.800781 1.828125 -4.65625 C 1.828125 -3.507812 2.15625 -2.601562 2.8125 -1.9375 Z M 2.8125 -1.9375 "/></g></g></g><g fill="#737373" fill-opacity="1"><g transform="translate(236.645077, 297.735684)"><g><path d="M 8.90625 0 L 8.21875 0 C 8.101562 0 8.046875 -0.0507812 8.046875 -0.15625 L 8.0625 -1.046875 C 7.3125 -0.285156 6.304688 0.09375 5.046875 0.09375 C 3.785156 0.09375 2.734375 -0.34375 1.890625 -1.21875 C 1.046875 -2.101562 0.625 -3.257812 0.625 -4.6875 C 0.625 -5.644531 0.832031 -6.484375 1.25 -7.203125 C 1.675781 -7.921875 2.21875 -8.457031 2.875 -8.8125 C 3.539062 -9.164062 4.253906 -9.34375 5.015625 -9.34375 C 6.335938 -9.34375 7.285156 -8.9375 7.859375 -8.125 L 7.84375 -9.109375 C 7.832031 -9.210938 7.882812 -9.265625 8 -9.265625 L 8.71875 -9.265625 C 8.832031 -9.265625 8.890625 -9.210938 8.890625 -9.109375 L 8.890625 -6.453125 C 8.890625 -6.347656 8.832031 -6.296875 8.71875 -6.296875 L 7.90625 -6.296875 C 7.800781 -6.296875 7.75 -6.347656 7.75 -6.453125 L 7.75 -6.609375 C 7.75 -6.984375 7.488281 -7.351562 6.96875 -7.71875 C 6.445312 -8.09375 5.78125 -8.28125 4.96875 -8.28125 C 4.164062 -8.28125 3.4375 -7.945312 2.78125 -7.28125 C 2.132812 -6.613281 1.8125 -5.722656 1.8125 -4.609375 C 1.8125 -3.492188 2.140625 -2.613281 2.796875 -1.96875 C 3.453125 -1.320312 4.179688 -1 4.984375 -1 C 5.796875 -1 6.4375 -1.125 6.90625 -1.375 C 7.375 -1.632812 7.726562 -1.941406 7.96875 -2.296875 L 7.96875 -3.296875 L 5.5625 -3.296875 C 5.457031 -3.296875 5.40625 -3.351562 5.40625 -3.46875 L 5.40625 -4.0625 C 5.40625 -4.164062 5.457031 -4.21875 5.5625 -4.21875 L 8.90625 -4.21875 C 9.007812 -4.21875 9.0625 -4.164062 9.0625 -4.0625 L 9.0625 -0.15625 C 9.0625 -0.0507812 9.007812 0 8.90625 0 Z M 8.90625 0 "/></g></g></g><g fill="#737373" fill-opacity="1"><g transform="translate(248.636138, 297.735684)"><g><path d="M 7.640625 0 L 0.78125 0 C 0.675781 0 0.625 -0.0507812 0.625 -0.15625 L 0.625 -0.8125 C 0.625 -0.914062 0.675781 -0.96875 0.78125 -0.96875 L 1.765625 -0.96875 L 1.765625 -8.296875 L 0.78125 -8.296875 C 0.675781 -8.296875 0.625 -8.347656 0.625 -8.453125 L 0.625 -9.109375 C 0.625 -9.210938 0.675781 -9.265625 0.78125 -9.265625 L 7.640625 -9.265625 C 7.753906 -9.265625 7.8125 -9.210938 7.8125 -9.109375 L 7.8125 -7.03125 C 7.8125 -6.914062 7.753906 -6.859375 7.640625 -6.859375 L 6.9375 -6.859375 C 6.832031 -6.859375 6.78125 -6.914062 6.78125 -7.03125 L 6.78125 -8.296875 L 2.890625 -8.296875 L 2.890625 -5.09375 L 6.15625 -5.09375 C 6.269531 -5.09375 6.328125 -5.039062 6.328125 -4.9375 L 6.328125 -4.28125 C 6.328125 -4.175781 6.269531 -4.125 6.15625 -4.125 L 2.890625 -4.125 L 2.890625 -0.96875 L 6.78125 -0.96875 L 6.78125 -2.234375 C 6.78125 -2.335938 6.832031 -2.390625 6.9375 -2.390625 L 7.640625 -2.390625 C 7.753906 -2.390625 7.8125 -2.335938 7.8125 -2.234375 L 7.8125 -0.15625 C 7.8125 -0.0507812 7.753906 0 7.640625 0 Z M 7.640625 0 "/></g></g></g><g fill="#737373" fill-opacity="1"><g transform="translate(259.376796, 297.735684)"><g><path d="M 6.171875 0 L 3.15625 0 C 3.050781 0 3 -0.0546875 3 -0.171875 L 3 -0.796875 C 3 -0.910156 3.050781 -0.96875 3.15625 -0.96875 L 4.140625 -0.96875 L 4.140625 -8.296875 L 1.703125 -8.296875 L 1.703125 -6.9375 C 1.703125 -6.8125 1.640625 -6.75 1.515625 -6.75 L 0.796875 -6.75 C 0.679688 -6.75 0.625 -6.8125 0.625 -6.9375 L 0.625 -9.09375 C 0.625 -9.207031 0.679688 -9.265625 0.796875 -9.265625 L 8.578125 -9.265625 C 8.703125 -9.265625 8.765625 -9.207031 8.765625 -9.09375 L 8.765625 -6.9375 C 8.765625 -6.8125 8.703125 -6.75 8.578125 -6.75 L 7.84375 -6.75 C 7.726562 -6.75 7.671875 -6.8125 7.671875 -6.9375 L 7.671875 -8.296875 L 5.265625 -8.296875 L 5.265625 -0.96875 L 6.171875 -0.96875 C 6.285156 -0.96875 6.34375 -0.910156 6.34375 -0.796875 L 6.34375 -0.171875 C 6.34375 -0.0546875 6.285156 0 6.171875 0 Z M 6.171875 0 "/></g></g></g><g fill="#737373" fill-opacity="1"><g transform="translate(271.071363, 297.735684)"><g><path d="M 9.8125 0 L 6.703125 0 C 6.597656 0 6.546875 -0.0507812 6.546875 -0.15625 L 6.546875 -0.8125 C 6.546875 -0.914062 6.597656 -0.96875 6.703125 -0.96875 L 7.6875 -0.96875 L 7.6875 -4.125 L 2.890625 -4.125 L 2.890625 -0.96875 L 3.890625 -0.96875 C 3.992188 -0.96875 4.046875 -0.914062 4.046875 -0.8125 L 4.046875 -0.15625 C 4.046875 -0.0507812 3.992188 0 3.890625 0 L 0.78125 0 C 0.675781 0 0.625 -0.0507812 0.625 -0.15625 L 0.625 -0.8125 C 0.625 -0.914062 0.675781 -0.96875 0.78125 -0.96875 L 1.765625 -0.96875 L 1.765625 -8.296875 L 0.78125 -8.296875 C 0.675781 -8.296875 0.625 -8.347656 0.625 -8.453125 L 0.625 -9.109375 C 0.625 -9.210938 0.675781 -9.265625 0.78125 -9.265625 L 3.890625 -9.265625 C 3.992188 -9.265625 4.046875 -9.210938 4.046875 -9.109375 L 4.046875 -8.453125 C 4.046875 -8.347656 3.992188 -8.296875 3.890625 -8.296875 L 2.890625 -8.296875 L 2.890625 -5.078125 L 7.6875 -5.078125 L 7.6875 -8.296875 L 6.703125 -8.296875 C 6.597656 -8.296875 6.546875 -8.347656 6.546875 -8.453125 L 6.546875 -9.109375 C 6.546875 -9.210938 6.597656 -9.265625 6.703125 -9.265625 L 9.8125 -9.265625 C 9.914062 -9.265625 9.96875 -9.210938 9.96875 -9.109375 L 9.96875 -8.453125 C 9.96875 -8.347656 9.914062 -8.296875 9.8125 -8.296875 L 8.8125 -8.296875 L 8.8125 -0.96875 L 9.8125 -0.96875 C 9.914062 -0.96875 9.96875 -0.914062 9.96875 -0.8125 L 9.96875 -0.15625 C 9.96875 -0.0507812 9.914062 0 9.8125 0 Z M 9.8125 0 "/></g></g></g><g fill="#737373" fill-opacity="1"><g transform="translate(283.96478, 297.735684)"><g><path d="M 7.640625 0 L 0.78125 0 C 0.675781 0 0.625 -0.0507812 0.625 -0.15625 L 0.625 -0.8125 C 0.625 -0.914062 0.675781 -0.96875 0.78125 -0.96875 L 1.765625 -0.96875 L 1.765625 -8.296875 L 0.78125 -8.296875 C 0.675781 -8.296875 0.625 -8.347656 0.625 -8.453125 L 0.625 -9.109375 C 0.625 -9.210938 0.675781 -9.265625 0.78125 -9.265625 L 7.640625 -9.265625 C 7.753906 -9.265625 7.8125 -9.210938 7.8125 -9.109375 L 7.8125 -7.03125 C 7.8125 -6.914062 7.753906 -6.859375 7.640625 -6.859375 L 6.9375 -6.859375 C 6.832031 -6.859375 6.78125 -6.914062 6.78125 -7.03125 L 6.78125 -8.296875 L 2.890625 -8.296875 L 2.890625 -5.09375 L 6.15625 -5.09375 C 6.269531 -5.09375 6.328125 -5.039062 6.328125 -4.9375 L 6.328125 -4.28125 C 6.328125 -4.175781 6.269531 -4.125 6.15625 -4.125 L 2.890625 -4.125 L 2.890625 -0.96875 L 6.78125 -0.96875 L 6.78125 -2.234375 C 6.78125 -2.335938 6.832031 -2.390625 6.9375 -2.390625 L 7.640625 -2.390625 C 7.753906 -2.390625 7.8125 -2.335938 7.8125 -2.234375 L 7.8125 -0.15625 C 7.8125 -0.0507812 7.753906 0 7.640625 0 Z M 7.640625 0 "/></g></g></g><g fill="#737373" fill-opacity="1"><g transform="translate(294.705448, 297.735684)"><g><path d="M 8.453125 0 L 7.328125 0 C 7.015625 0 6.757812 -0.207031 6.5625 -0.625 L 5.34375 -3.078125 C 5.238281 -3.296875 5.128906 -3.457031 5.015625 -3.5625 C 4.898438 -3.664062 4.738281 -3.722656 4.53125 -3.734375 L 2.890625 -3.734375 L 2.890625 -0.96875 L 4.046875 -0.96875 C 4.148438 -0.96875 4.203125 -0.914062 4.203125 -0.8125 L 4.203125 -0.15625 C 4.203125 -0.0507812 4.148438 0 4.046875 0 L 0.78125 0 C 0.675781 0 0.625 -0.0507812 0.625 -0.15625 L 0.625 -0.8125 C 0.625 -0.914062 0.675781 -0.96875 0.78125 -0.96875 L 1.765625 -0.96875 L 1.765625 -8.296875 L 0.78125 -8.296875 C 0.675781 -8.296875 0.625 -8.347656 0.625 -8.453125 L 0.625 -9.109375 C 0.625 -9.210938 0.675781 -9.265625 0.78125 -9.265625 L 4.765625 -9.265625 C 5.679688 -9.265625 6.425781 -9.019531 7 -8.53125 C 7.582031 -8.050781 7.875 -7.367188 7.875 -6.484375 C 7.875 -5.128906 7.238281 -4.285156 5.96875 -3.953125 C 6.132812 -3.816406 6.335938 -3.523438 6.578125 -3.078125 L 7.671875 -0.96875 L 8.453125 -0.96875 C 8.554688 -0.96875 8.609375 -0.914062 8.609375 -0.8125 L 8.609375 -0.15625 C 8.609375 -0.0507812 8.554688 0 8.453125 0 Z M 2.890625 -4.640625 L 4.546875 -4.640625 C 6.003906 -4.640625 6.734375 -5.238281 6.734375 -6.4375 C 6.734375 -7.675781 6.003906 -8.296875 4.546875 -8.296875 L 2.890625 -8.296875 Z M 2.890625 -4.640625 "/></g></g></g></svg>